<?xml version="1.0" encoding="UTF-8" standalone="no"?>
<svg width="30px" height="48px" viewBox="0 0 30 48" version="1.1" xmlns="http://www.w3.org/2000/svg" xmlns:xlink="http://www.w3.org/1999/xlink" xmlns:sketch="http://www.bohemiancoding.com/sketch/ns">
    <!-- Generator: Sketch 3.4.2 (15857) - http://www.bohemiancoding.com/sketch -->
    <title>acj-logo-xs</title>
    <desc>Created with Sketch.</desc>
    <defs></defs>
    <g id="Logo" stroke="none" stroke-width="1" fill="none" fill-rule="evenodd" sketch:type="MSPage">
        <g id="Extra-Small" sketch:type="MSArtboardGroup" transform="translate(-10.000000, 0.000000)" fill="#FFFFFF">
            <path d="M24.3688824,0.349917299 C24.6000363,-0.14569802 24.9772897,-0.141041564 25.2129714,0.363464668 L26.6820069,3.50811884 C26.9170304,4.01121617 26.9161442,4.8290786 26.6870549,5.31981193 L20.6401653,18.2728865 C20.4079297,18.7703596 20.6628824,19.1736413 21.2098337,19.1736414 L25.878182,19.1736419 C26.1567167,19.1736419 26.4745491,19.3713089 26.5918303,19.623197 L29.1490627,25.1154352 C29.3830279,25.6179285 29.1742788,25.8307603 28.6644388,25.6151804 C28.6644388,25.6151804 23.7723655,22.8351002 19.0958516,26.7140687 C17.2766318,28.2230338 14.7093524,31.5355924 16.1956873,36.4658693 C17.6820222,41.3961463 22.3477446,42.370964 22.3477446,42.370964 C22.8742623,42.5333392 23.3010894,43.1129354 23.3010895,43.668997 L23.3010902,47.1350025 C23.3010903,47.6895112 22.8518676,48.0848806 22.3042308,47.9891295 C22.3042308,47.9891295 20.180689,47.9250957 16.6307119,45.6738909 C13.6580439,43.7887846 11.1029269,39.9438182 10.5497571,36.4103671 C9.99658732,32.8769159 10.2891512,30.358197 12.2079621,26.4240518 L24.3688824,0.349917299 Z M26.3619026,14.1738771 C26.1330283,13.6716738 26.1378116,12.8578408 26.3726789,12.3559325 L28.1686987,8.51786272 C28.4035246,8.01604301 28.784882,8.01797877 29.0160737,8.512712 C29.0160737,8.512712 36.9697674,25.5355118 37.4031366,26.4240508 C37.8365058,27.3125897 40.9041898,32.2843613 38.3091626,38.8418465 C34.9742496,47.2689805 27.168068,47.9752929 27.168068,47.9752929 C26.6341115,48.0657226 26.2012542,47.6940317 26.2012541,47.1416525 L26.2012537,43.6986 C26.2012536,43.1477634 26.630955,42.5599257 27.1368501,42.3696199 C27.1368501,42.3696199 36.9681129,39.6197987 33.7539354,30.2236495 C32.5015431,27.6558649 26.3619026,14.1738771 26.3619026,14.1738771 Z" id="acj-logo-xs" sketch:type="MSShapeGroup"></path>
        </g>
    </g>
</svg>