<?xml version="1.0" encoding="UTF-8" standalone="no"?>
<svg width="309px" height="511px" viewBox="0 0 309 511" version="1.1" xmlns="http://www.w3.org/2000/svg" xmlns:xlink="http://www.w3.org/1999/xlink" xmlns:sketch="http://www.bohemiancoding.com/sketch/ns">
    <!-- Generator: Sketch 3.4.2 (15857) - http://www.bohemiancoding.com/sketch -->
    <title>acj-logo-l</title>
    <desc>Created with Sketch.</desc>
    <defs></defs>
    <g id="Logo" stroke="none" stroke-width="1" fill="none" fill-rule="evenodd" sketch:type="MSPage">
        <g id="Large" sketch:type="MSArtboardGroup" transform="translate(0.000000, -1.000000)" fill="#FFFFFF">
            <path d="M149.614434,4.97995943 C151.949515,-0.0266698066 155.734949,-0.0342615445 158.078084,4.98151278 L174.245959,39.5908709 C176.585223,44.598358 176.590634,52.7083147 174.252767,57.7162734 L109.563051,196.28846 C107.227546,201.291356 109.806967,205.347006 115.327743,205.347006 L160.788356,205.347011 C166.307612,205.347011 172.669819,209.401849 175.004121,214.415293 L200.438347,269.041078 C202.770241,274.049352 200.644293,276.141444 195.565168,273.972447 C195.565168,273.972447 143.062859,244.230605 93.3996776,285.424091 C74.0801065,301.44885 46.8163668,336.627233 62.6007991,388.985302 C78.3852314,441.34337 128.504643,451.900505 128.504643,451.900505 C133.780842,453.511739 138.058047,459.294981 138.058048,464.811298 L138.058055,502.957377 C138.058056,508.476577 133.619313,512.424753 128.171885,511.495918 C128.171885,511.495918 104.920327,510.678863 67.2206307,486.771741 C35.6517845,466.752475 8.51720514,425.92008 2.64270704,388.395884 C-3.23179105,350.871688 -0.124850231,324.123646 20.2523486,282.344199 L149.614434,4.97995943 Z M170.311784,151.700061 C168.019933,146.671088 168.06062,138.53702 170.399899,133.538013 L190.028116,91.5927805 C192.368631,86.5911315 196.157646,86.5847899 198.499427,91.5960539 C198.499427,91.5960539 283.215324,272.90817 287.817576,282.344188 C292.419828,291.780206 324.997716,344.578936 297.439302,414.217469 C262.023522,503.711115 178.710946,511.298692 178.710946,511.298692 C173.268724,512.211118 168.856931,508.467457 168.85693,502.957796 L168.856926,465.195876 C168.856925,459.6769 173.110757,453.811348 178.288422,451.88091 C178.288422,451.88091 283.197755,422.47909 249.064149,322.694792 C235.764118,295.425686 170.311784,151.700061 170.311784,151.700061 Z" id="acj-logo-l" sketch:type="MSShapeGroup"></path>
        </g>
    </g>
</svg>