<?xml version="1.0" encoding="UTF-8" standalone="no"?>
<svg width="78px" height="128px" viewBox="0 0 78 128" version="1.1" xmlns="http://www.w3.org/2000/svg" xmlns:xlink="http://www.w3.org/1999/xlink" xmlns:sketch="http://www.bohemiancoding.com/sketch/ns">
    <!-- Generator: Sketch 3.4.2 (15857) - http://www.bohemiancoding.com/sketch -->
    <title>acj-logo-s</title>
    <desc>Created with Sketch.</desc>
    <defs></defs>
    <g id="Logo" stroke="none" stroke-width="1" fill="none" fill-rule="evenodd" sketch:type="MSPage">
        <g id="Small" sketch:type="MSArtboardGroup" transform="translate(-25.000000, 0.000000)" fill="#FFFFFF">
            <path d="M63.2741291,0.742686547 C63.7394943,-0.255099344 64.492954,-0.258647105 64.9606758,0.742569917 L69.4351769,10.320799 C69.9012657,11.3185205 69.8969988,12.9458463 69.4334145,13.9388925 L52.8302957,49.5045222 C52.3632335,50.5050185 52.8879766,51.3160812 53.9917365,51.3160813 L67.3540694,51.3160826 C67.905967,51.3160827 68.5462642,51.7303702 68.7735579,52.2185351 L75.9831866,67.7028526 C76.4489971,68.7032866 76.0322289,69.119326 75.0088268,68.6665627 C75.0088268,68.6665627 61.4207137,61.0410578 48.9997114,71.3437485 C44.1677931,75.3516183 37.3489996,84.1499023 41.2967626,97.2449091 C45.2445256,110.339916 58.2508984,113.143901 58.2508984,113.143901 C59.3102288,113.456528 60.1689859,114.597574 60.1689861,115.701105 L60.1689882,126.258131 C60.1689884,127.357809 59.2737617,128.148165 58.1897023,127.976777 C58.1897023,127.976777 51.8810817,127.681058 42.4522049,121.701771 C34.5566835,116.694856 27.7701937,106.482476 26.3009532,97.0974929 C24.8317128,87.7125096 25.6087737,81.0226946 30.7052099,70.5734525 L63.2741291,0.742686547 Z M68.0275404,37.441885 C67.5693571,36.4364177 67.5758325,34.8137448 68.0457805,33.8094722 L73.3790114,22.4124302 C73.8472685,21.4117713 74.6041924,21.4080937 75.0736481,22.4127159 C75.0736481,22.4127159 96.4735246,68.2134558 97.6245701,70.5734497 C98.7756156,72.9334436 106.923503,86.1386618 100.03101,103.555596 C91.173352,125.938391 69.8475296,127.934593 69.8475296,127.934593 C68.7564396,128.108388 67.8719362,127.345801 67.8719361,126.241036 L67.8719348,115.814489 C67.8719346,114.705368 68.7183224,113.533623 69.7588797,113.157723 C69.7588797,113.157723 96.4691304,105.621868 87.9321502,80.6653313 C84.6057478,73.8451957 68.0275404,37.441885 68.0275404,37.441885 Z" id="acj-logo-s" sketch:type="MSShapeGroup"></path>
        </g>
    </g>
</svg>