<?xml version="1.0" encoding="UTF-8" standalone="no"?>
<svg width="155px" height="256px" viewBox="0 0 155 256" version="1.1" xmlns="http://www.w3.org/2000/svg" xmlns:xlink="http://www.w3.org/1999/xlink" xmlns:sketch="http://www.bohemiancoding.com/sketch/ns">
    <!-- Generator: Sketch 3.4.2 (15857) - http://www.bohemiancoding.com/sketch -->
    <title>acj-logo-m</title>
    <desc>Created with Sketch.</desc>
    <defs></defs>
    <g id="Logo" stroke="none" stroke-width="1" fill="none" fill-rule="evenodd" sketch:type="MSPage">
        <g id="Medium" sketch:type="MSArtboardGroup" transform="translate(-50.000000, 0.000000)" fill="#FFFFFF">
            <path d="M125.608676,2.47999775 C126.773645,-0.0178039816 128.664278,-0.0171307723 129.835846,2.49075639 L137.919783,19.7954354 C139.089415,22.299179 139.087468,26.3641234 137.926528,28.8509798 L105.574988,98.1513869 C104.409081,100.648882 105.700287,102.673503 108.469589,102.673503 L131.182067,102.673505 C133.946618,102.673506 137.134762,104.707472 138.298864,107.207647 L151.015977,134.520539 C152.181924,137.024676 151.112706,138.06787 148.579388,136.986224 C148.579388,136.986224 122.328233,122.115302 97.4966422,142.712046 C87.8368566,150.724425 74.2049867,168.313617 82.0972029,194.492651 C89.989419,220.671685 115.040572,225.947206 115.040572,225.947206 C117.683395,226.754505 119.825827,229.641482 119.825827,232.405649 L119.825831,251.478688 C119.825831,254.238289 117.596853,256.210972 114.882746,255.747959 C114.882746,255.747959 103.256967,255.339431 84.4071187,243.38587 C68.6226956,233.376237 55.0554059,212.96004 52.1181569,194.197942 C49.1809078,175.435844 50.7343782,162.061823 60.9229777,141.1721 L125.608676,2.47999775 Z M135.952695,75.8500305 C134.80677,73.3355441 134.827113,69.26851 135.996753,66.7690067 L145.810861,45.7963902 C146.981119,43.2955657 148.880803,43.3034723 150.050258,45.8060332 C150.050258,45.8060332 192.404466,136.454085 194.705591,141.172094 C197.006717,145.890103 213.295661,172.289468 199.516454,207.108735 C181.808564,251.855558 140.152276,255.649346 140.152276,255.649346 C137.431165,256.105559 135.225269,254.233729 135.225269,251.478898 L135.225266,232.597938 C135.225266,229.83845 137.352182,226.905674 139.941015,225.940455 C139.941015,225.940455 192.395681,211.239545 175.328878,161.347396 C168.678862,147.712843 135.952695,75.8500305 135.952695,75.8500305 Z" id="acj-logo-m" sketch:type="MSShapeGroup"></path>
        </g>
    </g>
</svg>