<?xml version="1.0" encoding="UTF-8" standalone="no"?>
<svg width="252px" height="254px" viewBox="0 0 252 254" version="1.1" xmlns="http://www.w3.org/2000/svg" xmlns:xlink="http://www.w3.org/1999/xlink" xmlns:sketch="http://www.bohemiancoding.com/sketch/ns">
    <!-- Generator: Sketch 3.4.2 (15857) - http://www.bohemiancoding.com/sketch -->
    <title>acj-logo-text</title>
    <desc>Created with Sketch.</desc>
    <defs></defs>
    <g id="Homepage" stroke="none" stroke-width="1" fill="none" fill-rule="evenodd" sketch:type="MSPage">
        <g id="Menu" sketch:type="MSArtboardGroup" transform="translate(-406.000000, -382.000000)">
            <g id="acj-logo-text" sketch:type="MSLayerGroup" transform="translate(407.000000, 382.000000)">
                <text id="ADAMCOLEJENKINS" sketch:type="MSTextLayer" font-family="Gotham" font-size="24" font-weight="633">
                    <tspan x="0" y="253" fill="#FFFFFF">ADAM</tspan>
                    <tspan x="76.008" y="253" fill="#DB1D72">COLE</tspan>
                    <tspan x="143.064" y="253" fill="#FFFFFF">JENKINS</tspan>
                </text>
                <path d="M124.164548,2.46125666 C125.33365,-0.0454072059 127.224692,-0.0582143996 128.400126,2.45794925 L133.81721,14.053895 C134.987353,16.5587322 134.990471,20.6146006 133.816721,23.128897 L109.393228,75.4465937 C108.222814,77.9537417 109.504961,79.9861869 112.279479,79.9861872 L127.913424,79.9861888 C130.67787,79.986189 133.862959,82.0137799 135.029694,84.5196085 L144.083099,103.963855 C145.248861,106.467594 144.179283,107.527871 141.624952,106.487458 C141.624952,106.487458 122.057528,95.222276 102.597585,111.363468 C95.0274338,117.642584 84.3444524,131.426827 90.5293998,151.942732 C96.7143473,172.458636 115.333487,176.219642 115.333487,176.219642 C117.963999,177.05847 120.096451,179.984924 120.096451,182.737356 L120.096454,195.518288 C120.096454,198.279094 117.870613,200.237056 115.161096,199.73129 C115.161096,199.73129 107.111818,199.626947 92.3396275,190.259218 C79.9697398,182.4149 69.3373684,166.415198 67.0355142,151.711775 C64.73366,137.008352 65.9510789,126.527441 73.9356488,110.156648 L124.164548,2.46125666 Z M133.183256,59.9490249 C132.037493,57.4351569 132.057095,53.3704898 133.231934,50.8598734 L139.997619,36.4016978 C141.170266,33.8957659 143.068399,33.8920458 144.241723,36.4028326 C144.241723,36.4028326 176.974653,106.459248 178.777992,110.156643 C180.581331,113.854038 193.3466,134.54261 182.548154,161.829665 C168.670889,196.896716 137.078811,199.640536 137.078811,199.640536 C134.364788,200.12469 132.164637,198.285602 132.164637,195.523385 L132.164635,182.883116 C132.164635,180.125123 134.29425,177.179276 136.867717,176.180959 C136.867717,176.180959 176.967768,165.066886 163.592909,125.967561 C158.381445,115.282477 133.183256,59.9490249 133.183256,59.9490249 Z" id="ACJ_logo_m" fill="#FFFFFF" sketch:type="MSShapeGroup"></path>
            </g>
        </g>
    </g>
</svg>