<?xml version="1.0" encoding="UTF-8" standalone="no"?>
<svg width="21px" height="21px" viewBox="0 0 21 21" version="1.1" xmlns="http://www.w3.org/2000/svg" xmlns:xlink="http://www.w3.org/1999/xlink" xmlns:sketch="http://www.bohemiancoding.com/sketch/ns">
    <!-- Generator: Sketch 3.4.2 (15857) - http://www.bohemiancoding.com/sketch -->
    <title>icon-pinterest</title>
    <desc>Created with Sketch.</desc>
    <defs></defs>
    <g id="Homepage" stroke="none" stroke-width="1" fill="none" fill-rule="evenodd" sketch:type="MSPage">
        <g id="Menu" sketch:type="MSArtboardGroup" transform="translate(-955.000000, -641.000000)" fill="#DB1D72">
            <path d="M975.571453,651.428561 C975.571453,645.749983 970.964305,641.142835 965.285727,641.142835 C959.607148,641.142835 955,645.749983 955,651.428561 C955,655.647316 957.531253,659.263392 961.160722,660.857144 C961.133936,660.133929 961.147329,659.263392 961.334829,658.486605 C961.334829,658.486605 961.535722,657.656247 962.660723,652.888384 C962.325902,652.232134 962.325902,651.254454 962.325902,651.254454 C962.325902,649.727666 963.209831,648.589272 964.308047,648.589272 C965.245548,648.589272 965.700906,649.299094 965.700906,650.142845 C965.700906,651.080347 965.098226,652.486598 964.79019,653.785707 C964.535726,654.883922 965.339298,655.767852 966.410728,655.767852 C968.366087,655.767852 969.678589,653.263385 969.678589,650.30356 C969.678589,648.040164 968.151801,646.352662 965.39287,646.352662 C962.27233,646.352662 960.330363,648.683022 960.330363,651.28124 C960.330363,652.178562 960.598221,652.808027 961.0134,653.303563 C961.2009,653.531242 961.227686,653.6116 961.160722,653.879457 C961.10715,654.066957 961.000007,654.522315 960.946436,654.696422 C960.879471,654.96428 960.665185,655.05803 960.437506,654.96428 C959.004469,654.374993 958.334825,652.794634 958.334825,651.026775 C958.334825,648.107129 960.799114,644.598196 965.67412,644.598196 C969.611625,644.598196 972.196449,647.450878 972.196449,650.49106 C972.196449,654.535708 969.946446,657.549104 966.638407,657.549104 C965.526798,657.549104 964.482154,656.946425 964.133939,656.263388 C963.53126,658.633927 963.410724,659.089285 963.410724,659.089285 C963.196438,659.879464 962.754474,660.669644 962.36608,661.285716 C963.303581,661.566966 964.267868,661.714288 965.285727,661.714288 C970.964305,661.714288 975.571453,657.107139 975.571453,651.428561 L975.571453,651.428561 Z" id="icon-pinterest" sketch:type="MSShapeGroup"></path>
        </g>
    </g>
</svg>