<?xml version="1.0" encoding="UTF-8" standalone="no"?>
<svg width="21px" height="21px" viewBox="0 0 21 21" version="1.1" xmlns="http://www.w3.org/2000/svg" xmlns:xlink="http://www.w3.org/1999/xlink" xmlns:sketch="http://www.bohemiancoding.com/sketch/ns">
    <!-- Generator: Sketch 3.4.2 (15857) - http://www.bohemiancoding.com/sketch -->
    <title>icon-dribbble</title>
    <desc>Created with Sketch.</desc>
    <defs></defs>
    <g id="Homepage" stroke="none" stroke-width="1" fill="none" fill-rule="evenodd" sketch:type="MSPage">
        <g id="Menu" sketch:type="MSArtboardGroup" transform="translate(-824.000000, -641.000000)" fill="#DB1D72">
            <path d="M837.714302,659.517857 C836.656265,659.959821 835.504478,660.214286 834.285727,660.214286 C832.15626,660.214286 830.214293,659.450892 828.687506,658.205355 C828.687506,658.205355 828.808041,658.285712 828.888399,658.352677 C830.575901,654.683029 835.785728,652.861599 835.785728,652.861599 C835.799121,652.861599 835.825907,652.848206 835.8393,652.848206 C837.071444,656.062495 837.580373,658.74107 837.714302,659.517857 L837.714302,659.517857 Z M835.236621,651.388383 C835.129478,651.428561 835.008942,651.455347 834.888406,651.495526 C834.888406,651.495526 830.147329,653.022313 827.750004,657.29464 C826.357146,655.741066 825.500002,653.678564 825.500002,651.428561 C825.500002,651.334811 825.500002,651.241061 825.513395,651.147311 C825.660716,651.147311 830.000007,651.254454 834.526798,649.901774 C834.781263,650.39731 835.022335,650.892846 835.236621,651.388383 L835.236621,651.388383 Z M833.803583,648.549093 C829.584828,649.660702 825.915181,649.620523 825.687502,649.620523 C826.263396,646.90177 828.084826,644.638375 830.535722,643.486587 C830.656258,643.647302 832.276796,645.843733 833.803583,648.549093 L833.803583,648.549093 Z M842.964308,652.82142 C842.562522,655.272316 841.169663,657.38839 839.200911,658.714284 C839.107161,658.191962 838.63841,655.607138 837.486623,652.433027 C840.325912,651.991062 842.776808,652.767849 842.964308,652.82142 L842.964308,652.82142 Z M832.183045,642.897301 C832.169653,642.897301 832.15626,642.910694 832.15626,642.910694 C832.169653,642.897301 832.169653,642.897301 832.183045,642.897301 L832.183045,642.897301 Z M840.084841,644.839268 C840.058055,644.879446 838.812518,646.781234 835.504478,648.013379 C834.004476,645.254447 832.34376,643.071408 832.209831,642.897301 C832.879475,642.736587 833.575904,642.642836 834.285727,642.642836 C836.508943,642.642836 838.54466,643.473195 840.084841,644.839268 L840.084841,644.839268 Z M843.071451,651.334811 C842.964308,651.321418 839.977698,650.665167 836.950908,651.053561 C836.883944,650.906239 836.830372,650.745525 836.763408,650.598203 C836.575908,650.169631 836.375015,649.741059 836.174122,649.32588 C839.642876,647.906236 841.049127,645.870519 841.075913,645.843733 C842.308058,647.343735 843.044666,649.258916 843.071451,651.334811 L843.071451,651.334811 Z M844.571453,651.428561 C844.571453,645.749983 839.964305,641.142835 834.285727,641.142835 C828.607148,641.142835 824,645.749983 824,651.428561 C824,657.107139 828.607148,661.714288 834.285727,661.714288 C839.964305,661.714288 844.571453,657.107139 844.571453,651.428561 L844.571453,651.428561 Z" id="icon-dribbble" sketch:type="MSShapeGroup"></path>
        </g>
    </g>
</svg>