<?xml version="1.0" encoding="UTF-8" standalone="no"?>
<svg width="23px" height="20px" viewBox="0 0 23 20" version="1.1" xmlns="http://www.w3.org/2000/svg" xmlns:xlink="http://www.w3.org/1999/xlink" xmlns:sketch="http://www.bohemiancoding.com/sketch/ns">
    <!-- Generator: Sketch 3.4.2 (15857) - http://www.bohemiancoding.com/sketch -->
    <title>icon-github</title>
    <desc>Created with Sketch.</desc>
    <defs></defs>
    <g id="Homepage" stroke="none" stroke-width="1" fill="none" fill-rule="evenodd" sketch:type="MSPage">
        <g id="Menu" sketch:type="MSArtboardGroup" transform="translate(-872.000000, -642.000000)" fill="#DB1D72">
            <path d="M880.571439,655.714281 C880.571439,654.736601 880.06251,653.142849 878.857151,653.142849 C877.651792,653.142849 877.142863,654.736601 877.142863,655.714281 C877.142863,656.69196 877.651792,658.285712 878.857151,658.285712 C880.06251,658.285712 880.571439,656.69196 880.571439,655.714281 L880.571439,655.714281 Z M889.142878,655.714281 C889.142878,654.736601 888.633948,653.142849 887.42859,653.142849 C886.223231,653.142849 885.714302,654.736601 885.714302,655.714281 C885.714302,656.69196 886.223231,658.285712 887.42859,658.285712 C888.633948,658.285712 889.142878,656.69196 889.142878,655.714281 L889.142878,655.714281 Z M891.285737,655.714281 C891.285737,659.8125 887.535733,660.441965 884.267872,660.441965 L882.017869,660.441965 C878.750008,660.441965 875.000004,659.8125 875.000004,655.714281 C875.000004,653.665171 876.245541,651.857133 878.428579,651.857133 C879.312509,651.857133 880.169653,652.017848 881.040189,652.138383 C881.736619,652.245526 882.433048,652.285705 883.14287,652.285705 C883.852693,652.285705 884.549122,652.245526 885.245552,652.138383 C886.129481,652.017848 886.973232,651.857133 887.857162,651.857133 C890.0402,651.857133 891.285737,653.665171 891.285737,655.714281 L891.285737,655.714281 Z M894.285741,653.357135 C894.285741,651.401775 893.750026,649.540166 892.46431,648.026771 C892.705382,647.303556 892.825918,646.540163 892.825918,645.776769 C892.825918,644.772303 892.598239,643.767838 892.142881,642.857122 C890.053593,642.857122 888.700913,643.754445 887.107161,644.999982 C885.888409,644.705339 884.616086,644.57141 883.357156,644.57141 C881.964298,644.57141 880.571439,644.718732 879.218759,645.040161 C877.611614,643.781231 876.258934,642.857122 874.14286,642.857122 C873.687502,643.767838 873.459823,644.772303 873.459823,645.776769 C873.459823,646.540163 873.580359,647.316949 873.821431,648.053557 C872.535715,649.553559 872,651.401775 872,653.357135 C872,654.843744 872.147322,656.437496 872.830358,657.790176 C874.665182,661.406252 879.821438,661.714288 883.357156,661.714288 C886.839303,661.714288 891.700916,661.366073 893.468776,657.790176 C894.138419,656.424103 894.285741,654.843744 894.285741,653.357135 L894.285741,653.357135 Z" id="icon-github" sketch:type="MSShapeGroup"></path>
        </g>
    </g>
</svg>