<?xml version="1.0" encoding="UTF-8" standalone="no"?>
<svg width="22px" height="18px" viewBox="0 0 22 18" version="1.1" xmlns="http://www.w3.org/2000/svg" xmlns:xlink="http://www.w3.org/1999/xlink" xmlns:sketch="http://www.bohemiancoding.com/sketch/ns">
    <!-- Generator: Sketch 3.4.2 (15857) - http://www.bohemiancoding.com/sketch -->
    <title>icon-twitter</title>
    <desc>Created with Sketch.</desc>
    <defs></defs>
    <g id="Homepage" stroke="none" stroke-width="1" fill="none" fill-rule="evenodd" sketch:type="MSPage">
        <g id="Menu" sketch:type="MSArtboardGroup" transform="translate(-781.000000, -642.000000)" fill="#DB1D72">
            <path d="M802.696454,644.892839 C801.919668,645.227661 801.075917,645.468733 800.20538,645.562483 C801.102703,645.026768 801.785739,644.183017 802.107168,643.178551 C801.27681,643.674088 800.339309,644.035695 799.361629,644.223195 C798.57145,643.379444 797.446448,642.857122 796.200911,642.857122 C793.803587,642.857122 791.875013,644.799089 791.875013,647.18302 C791.875013,647.517842 791.915192,647.852664 791.982156,648.174093 C788.392866,647.986593 785.191969,646.272305 783.062502,643.647302 C782.687502,644.29016 782.473216,645.026768 782.473216,645.83034 C782.473216,647.330342 783.23661,648.656236 784.40179,649.433023 C783.691967,649.406237 783.022324,649.205344 782.44643,648.883915 L782.44643,648.937487 C782.44643,651.040168 783.933039,652.781241 785.915184,653.183028 C785.553577,653.276778 785.165184,653.330349 784.77679,653.330349 C784.49554,653.330349 784.227682,653.303563 783.959825,653.263385 C784.508933,654.977673 786.102685,656.22321 788.004473,656.263388 C786.517864,657.428568 784.656254,658.111605 782.633931,658.111605 C782.272323,658.111605 781.937501,658.098212 781.589286,658.058033 C783.504467,659.290178 785.781256,660 788.232151,660 C796.187518,660 800.540202,653.410706 800.540202,647.69195 C800.540202,647.504449 800.540202,647.316949 800.526809,647.129449 C801.37056,646.513377 802.107168,645.749983 802.696454,644.892839 L802.696454,644.892839 Z" id="icon-twitter" sketch:type="MSShapeGroup"></path>
        </g>
    </g>
</svg>