<?xml version="1.0" encoding="UTF-8" standalone="no"?>
<svg width="21px" height="21px" viewBox="0 0 21 21" version="1.1" xmlns="http://www.w3.org/2000/svg" xmlns:xlink="http://www.w3.org/1999/xlink" xmlns:sketch="http://www.bohemiancoding.com/sketch/ns">
    <!-- Generator: Sketch 3.4.2 (15857) - http://www.bohemiancoding.com/sketch -->
    <title>icon-linkedin</title>
    <desc>Created with Sketch.</desc>
    <defs></defs>
    <g id="Homepage" stroke="none" stroke-width="1" fill="none" fill-rule="evenodd" sketch:type="MSPage">
        <g id="Menu" sketch:type="MSArtboardGroup" transform="translate(-915.000000, -641.000000)" fill="#DB1D72">
            <path d="M918.174111,658.366069 L918.174111,649.071416 L921.267865,649.071416 L921.267865,658.366069 L918.174111,658.366069 Z M921.468758,646.205341 C921.468758,647.08927 920.799114,647.812485 919.714291,647.812485 L919.700898,647.812485 C918.656254,647.812485 917.986611,647.08927 917.986611,646.205341 C917.986611,645.294625 918.68304,644.598196 919.741077,644.598196 C920.799114,644.598196 921.455365,645.294625 921.468758,646.205341 L921.468758,646.205341 Z M929.303588,658.366069 L929.303588,653.397314 C929.303588,652.138383 928.861624,651.294632 927.750015,651.294632 C926.892871,651.294632 926.383942,651.870526 926.156263,652.419634 C926.075906,652.620527 926.062513,652.901777 926.062513,653.169635 L926.062513,658.366069 L922.968759,658.366069 C923.008938,649.941952 922.968759,649.071416 922.968759,649.071416 L926.062513,649.071416 L926.062513,650.424096 L926.035727,650.424096 C926.437514,649.781238 927.174122,648.85713 928.834838,648.85713 C930.870555,648.85713 932.397342,650.183024 932.397342,653.035706 L932.397342,658.366069 L929.303588,658.366069 Z M935.571453,644.999982 C935.571453,642.870515 933.843772,641.142835 931.714306,641.142835 L918.857147,641.142835 C916.727681,641.142835 915,642.870515 915,644.999982 L915,657.85714 C915,659.986607 916.727681,661.714288 918.857147,661.714288 L931.714306,661.714288 C933.843772,661.714288 935.571453,659.986607 935.571453,657.85714 L935.571453,644.999982 Z" id="icon-linkedin" sketch:type="MSShapeGroup"></path>
        </g>
    </g>
</svg>