<?xml version="1.0" encoding="UTF-8" standalone="no"?>
<svg width="800px" height="132px" viewBox="0 0 800 132" version="1.1" xmlns="http://www.w3.org/2000/svg" xmlns:xlink="http://www.w3.org/1999/xlink" xmlns:sketch="http://www.bohemiancoding.com/sketch/ns">
    <!-- Generator: Sketch 3.4.2 (15857) - http://www.bohemiancoding.com/sketch -->
    <title>project-awwoc-logo</title>
    <desc>Created with Sketch.</desc>
    <defs>
        <path id="path-1" d="M0,63 L186.875,63 L186.875,0.791 L0,0.791"></path>
    </defs>
    <g id="Homepage" stroke="none" stroke-width="1" fill="none" fill-rule="evenodd" sketch:type="MSPage">
        <g id="Desktop-HD" sketch:type="MSArtboardGroup" transform="translate(-320.000000, -4542.000000)">
            <g id="project-awwoc" sketch:type="MSLayerGroup" transform="translate(0.000000, 4096.000000)">
                <g id="project-awwoc-logo" transform="translate(320.000000, 446.000000)">
                    <path d="M18.3155994,5.77696326 L34.9243688,5.77696326 L53.0430263,52.2552586 L36.0403731,52.2552586 L33.6114226,45.4279384 L18.8407779,45.4279384 L16.5431221,52.2552586 L0,52.2552586 L18.3155994,5.77696326 Z M26.3902186,21.9918488 L22.5826746,33.480128 L30.1321152,33.480128 L26.3902186,21.9918488 Z M93.0368263,52.2552586 L77.281472,52.2552586 L64.6115412,5.77696326 L81.1546632,5.77696326 L86.1438588,31.9045926 L86.406448,31.9045926 L91.7895274,5.77696326 L108.135708,5.77696326 L113.978318,31.9045926 L114.240907,31.9045926 L119.29575,5.77696326 L135.313694,5.77696326 L122.381174,52.2552586 L106.625819,52.2552586 L100.061088,25.9963347 L99.7984992,25.9963347 L93.0368263,52.2552586 Z M173.527722,34.8587215 C173.527722,37.8347478 172.991608,40.4824961 171.919363,42.802046 C170.847118,45.1215959 169.402892,47.0800544 167.586641,48.6774802 C165.770389,50.2749061 163.669697,51.4893692 161.284499,52.3209059 C158.899302,53.1524427 156.393788,53.5682048 153.767882,53.5682048 C151.185742,53.5682048 148.70211,53.1524427 146.316912,52.3209059 C143.931715,51.4893692 141.841963,50.2749061 140.047594,48.6774802 C138.253226,47.0800544 136.81994,45.1215959 135.747696,42.802046 C134.675451,40.4824961 134.139336,37.8347478 134.139336,34.8587215 C134.139336,31.9264604 134.675451,29.3115353 135.747696,27.013868 C136.81994,24.7162007 138.253226,22.7796244 140.047594,21.2040811 C141.841963,19.6285378 143.931715,18.4359569 146.316912,17.6263027 C148.70211,16.8166485 151.185742,16.4118275 153.767882,16.4118275 C156.393788,16.4118275 158.899302,16.8166485 161.284499,17.6263027 C163.669697,18.4359569 165.770389,19.6285378 167.586641,21.2040811 C169.402892,22.7796244 170.847118,24.7162007 171.919363,27.013868 C172.991608,29.3115353 173.527722,31.9264604 173.527722,34.8587215 L173.527722,34.8587215 Z M153.767882,29.1474056 C152.104809,29.1474056 150.759052,29.7163432 149.730572,30.8542356 C148.702093,31.992128 148.187861,33.3269433 148.187861,34.8587215 C148.187861,36.4780299 148.713034,37.8566096 149.763396,38.994502 C150.813758,40.1323944 152.170456,40.7013321 153.833529,40.7013321 C155.496603,40.7013321 156.8533,40.1323944 157.903663,38.994502 C158.954025,37.8566096 159.479198,36.4780299 159.479198,34.8587215 C159.479198,33.3269433 158.943084,31.992128 157.870839,30.8542356 C156.798594,29.7163432 155.430956,29.1474056 153.767882,29.1474056 L153.767882,29.1474056 Z M178.195975,17.7247737 L192.769678,17.7247737 L192.769678,21.6636122 L192.900973,21.6636122 C193.644979,20.2631293 194.750031,19.1033718 196.216162,18.1843048 C197.682293,17.2652379 199.400047,16.8057113 201.369476,16.8057113 C202.551133,16.8057113 203.513951,16.9151224 204.257957,17.1339479 L203.076306,30.0008206 C202.59489,29.8695253 202.058776,29.7710553 201.467947,29.7054077 C200.877118,29.6397601 200.341004,29.6069367 199.859588,29.6069367 C197.890159,29.6069367 196.314639,30.1758744 195.132981,31.3137668 C193.951324,32.4516592 193.360504,33.8521211 193.360504,35.5151946 L193.360504,52.2552586 L178.195975,52.2552586 L178.195975,17.7247737 Z M206.49726,2.62589239 L221.990025,2.62589239 L221.990025,52.2552586 L206.49726,52.2552586 L206.49726,2.62589239 Z M226.658278,34.8587215 C226.658278,32.6267018 226.997453,30.43848 227.675812,28.2939905 C228.354171,26.149501 229.349812,24.2238659 230.662764,22.5170273 C231.975717,20.8101887 233.616883,19.431609 235.586313,18.3812468 C237.555742,17.3308845 239.831492,16.8057113 242.413633,16.8057113 C244.076706,16.8057113 245.739755,17.1230035 247.402828,17.7575973 C249.065902,18.3921911 250.400717,19.3003032 251.407314,20.4819607 L251.538609,20.4819607 L251.538609,2.62589239 L266.63749,2.62589239 L266.63749,52.2552586 L253.048497,52.2552586 L253.048497,48.6446566 L252.917202,48.6446566 C251.910605,50.0451395 250.444497,51.1501915 248.518833,51.9598457 C246.593169,52.7694999 244.558122,53.174321 242.413633,53.174321 C239.831492,53.174321 237.555742,52.6491477 235.586313,51.5987855 C233.616883,50.5484233 231.975717,49.1589025 230.662764,47.4301814 C229.349812,45.7014602 228.354171,43.7430017 227.675812,41.5547471 C226.997453,39.3664925 226.658278,37.1345063 226.658278,34.8587215 L226.658278,34.8587215 Z M240.706803,34.8587215 C240.706803,36.521795 241.188211,37.9113158 242.151044,39.0273257 C243.113876,40.1433355 244.514337,40.7013321 246.352471,40.7013321 C248.14684,40.7013321 249.580125,40.1323944 250.65237,38.994502 C251.724615,37.8566096 252.260729,36.4780299 252.260729,34.8587215 C252.260729,33.3269433 251.724615,31.992128 250.65237,30.8542356 C249.580125,29.7163432 248.14684,29.1474056 246.352471,29.1474056 C244.514337,29.1474056 243.113876,29.7163432 242.151044,30.8542356 C241.188211,31.992128 240.706803,33.3269433 240.706803,34.8587215 L240.706803,34.8587215 Z M312.342606,52.2552586 L296.587252,52.2552586 L283.917321,5.77696326 L300.460443,5.77696326 L305.449638,31.9045926 L305.712228,31.9045926 L311.095307,5.77696326 L327.441487,5.77696326 L333.284098,31.9045926 L333.546687,31.9045926 L338.60153,5.77696326 L354.619474,5.77696326 L341.686954,52.2552586 L325.931599,52.2552586 L319.366868,25.9963347 L319.104279,25.9963347 L312.342606,52.2552586 Z M357.25266,17.7247737 L372.417189,17.7247737 L372.417189,52.2552586 L357.25266,52.2552586 L357.25266,17.7247737 Z M356.990071,7.74638256 C356.990071,6.69602035 357.197952,5.70037944 357.61372,4.75942996 C358.029489,3.81848048 358.598426,2.99789732 359.32055,2.29765584 C360.042674,1.59741437 360.88514,1.03941782 361.847972,0.623649443 C362.810804,0.207881069 363.839268,0 364.933395,0 C365.983758,0 366.968457,0.207881069 367.887524,0.623649443 C368.806591,1.03941782 369.627174,1.59741437 370.349298,2.29765584 C371.071422,2.99789732 371.64036,3.81848048 372.056128,4.75942996 C372.471897,5.70037944 372.679778,6.69602035 372.679778,7.74638256 C372.679778,8.84050986 372.471897,9.85803299 372.056128,10.7989825 C371.64036,11.7399319 371.071422,12.549574 370.349298,13.2279329 C369.627174,13.9062919 368.806591,14.4424062 367.887524,14.836292 C366.968457,15.2301778 365.983758,15.4271178 364.933395,15.4271178 C363.839268,15.4271178 362.810804,15.2301778 361.847972,14.836292 C360.88514,14.4424062 360.042674,13.9062919 359.32055,13.2279329 C358.598426,12.549574 358.029489,11.7399319 357.61372,10.7989825 C357.197952,9.85803299 356.990071,8.84050986 356.990071,7.74638256 L356.990071,7.74638256 Z M393.562917,53.174321 C388.923817,53.174321 385.488309,52.1786801 383.256289,50.1873684 C381.024269,48.1960567 379.908276,45.0997229 379.908276,40.898274 L379.908276,28.5565798 L375.050375,28.5565798 L375.050375,17.7247737 L379.842629,17.7247737 L379.842629,9.97839109 L394.547626,9.97839109 L394.547626,17.7247737 L402.03142,17.7247737 L402.03142,28.5565798 L394.547626,28.5565798 L394.547626,37.7472032 C394.547626,39.4102766 394.908683,40.5372109 395.630807,41.1280396 C396.352931,41.7188683 397.348572,42.0142783 398.617759,42.0142783 C399.099175,42.0142783 399.602466,41.9705139 400.127648,41.8829837 C400.652829,41.7954535 401.068591,41.7079246 401.374946,41.6203944 L401.374946,51.9926694 C400.587175,52.3427901 399.482123,52.627259 398.059757,52.8460844 C396.637392,53.0649099 395.13846,53.174321 393.562917,53.174321 L393.562917,53.174321 Z M430.004468,16.8057113 C432.411548,16.8057113 434.413771,17.2433557 436.011197,18.1186575 C437.608622,18.9939594 438.877791,20.1208936 439.81874,21.499494 C440.75969,22.8780944 441.416156,24.4207907 441.78816,26.1276293 C442.160163,27.8344679 442.346162,29.5412809 442.346162,31.2481195 L442.346162,52.2552586 L427.115986,52.2552586 L427.115986,33.8740119 C427.115986,32.1234082 426.842458,30.898004 426.295395,30.1977625 C425.748331,29.497521 424.927748,29.1474056 423.833621,29.1474056 C422.958319,29.1474056 422.170559,29.5303444 421.470317,30.2962335 C420.770076,31.0621226 420.41996,32.2765857 420.41996,33.9396592 L420.41996,52.2552586 L405.255432,52.2552586 L405.255432,2.62589239 L420.41996,2.62589239 L420.41996,21.5323176 L420.551255,21.5323176 C421.426557,20.26313 422.673843,19.158078 424.293152,18.2171285 C425.91246,17.276179 427.816213,16.8057113 430.004468,16.8057113 L430.004468,16.8057113 Z M486.074564,34.8587215 C486.074564,37.8347478 485.53845,40.4824961 484.466205,42.802046 C483.393961,45.1215959 481.949734,47.0800544 480.133483,48.6774802 C478.317232,50.2749061 476.216539,51.4893692 473.831341,52.3209059 C471.446144,53.1524427 468.94063,53.5682048 466.314724,53.5682048 C463.732584,53.5682048 461.248952,53.1524427 458.863754,52.3209059 C456.478557,51.4893692 454.388805,50.2749061 452.594436,48.6774802 C450.800068,47.0800544 449.366782,45.1215959 448.294538,42.802046 C447.222293,40.4824961 446.686179,37.8347478 446.686179,34.8587215 C446.686179,31.9264604 447.222293,29.3115353 448.294538,27.013868 C449.366782,24.7162007 450.800068,22.7796244 452.594436,21.2040811 C454.388805,19.6285378 456.478557,18.4359569 458.863754,17.6263027 C461.248952,16.8166485 463.732584,16.4118275 466.314724,16.4118275 C468.94063,16.4118275 471.446144,16.8166485 473.831341,17.6263027 C476.216539,18.4359569 478.317232,19.6285378 480.133483,21.2040811 C481.949734,22.7796244 483.393961,24.7162007 484.466205,27.013868 C485.53845,29.3115353 486.074564,31.9264604 486.074564,34.8587215 L486.074564,34.8587215 Z M466.314724,29.1474056 C464.651651,29.1474056 463.305894,29.7163432 462.277415,30.8542356 C461.248935,31.992128 460.734703,33.3269433 460.734703,34.8587215 C460.734703,36.4780299 461.259876,37.8566096 462.310238,38.994502 C463.3606,40.1323944 464.717298,40.7013321 466.380371,40.7013321 C468.043445,40.7013321 469.400142,40.1323944 470.450505,38.994502 C471.500867,37.8566096 472.02604,36.4780299 472.02604,34.8587215 C472.02604,33.3269433 471.489926,31.992128 470.417681,30.8542356 C469.345436,29.7163432 467.977798,29.1474056 466.314724,29.1474056 L466.314724,29.1474056 Z M527.308369,52.2552586 L512.537724,52.2552586 L512.537724,48.4477147 L512.40643,48.4477147 C511.531128,49.7169023 510.229136,50.8219543 508.500415,51.7629038 C506.771694,52.7038533 504.791353,53.174321 502.559333,53.174321 C500.108488,53.174321 498.095324,52.7476177 496.519781,51.8941984 C494.944237,51.0407791 493.68601,49.924786 492.74506,48.5461856 C491.804111,47.1675852 491.147644,45.6139478 490.775641,43.8852266 C490.403638,42.1565055 490.217639,40.4387514 490.217639,38.7319128 L490.217639,17.7247737 L505.447815,17.7247737 L505.447815,35.9747258 C505.447815,37.7253295 505.721343,38.9507337 506.268406,39.6509751 C506.81547,40.3512166 507.636053,40.7013321 508.73018,40.7013321 C509.736778,40.7013321 510.557361,40.2965111 511.191955,39.4868569 C511.826548,38.6772027 512.143841,37.506504 512.143841,35.9747258 L512.143841,17.7247737 L527.308369,17.7247737 L527.308369,52.2552586 Z M548.38845,53.174321 C543.74935,53.174321 540.313842,52.1786801 538.081822,50.1873684 C535.849802,48.1960567 534.733809,45.0997229 534.733809,40.898274 L534.733809,28.5565798 L529.875908,28.5565798 L529.875908,17.7247737 L534.668162,17.7247737 L534.668162,9.97839109 L549.373159,9.97839109 L549.373159,17.7247737 L556.856953,17.7247737 L556.856953,28.5565798 L549.373159,28.5565798 L549.373159,37.7472032 C549.373159,39.4102766 549.734216,40.5372109 550.45634,41.1280396 C551.178464,41.7188683 552.174105,42.0142783 553.443293,42.0142783 C553.924709,42.0142783 554.428,41.9705139 554.953181,41.8829837 C555.478362,41.7954535 555.894124,41.7079246 556.20048,41.6203944 L556.20048,51.9926694 C555.412708,52.3427901 554.307656,52.627259 552.88529,52.8460844 C551.462925,53.0649099 549.963993,53.174321 548.38845,53.174321 L548.38845,53.174321 Z M574.333725,29.0161109 C574.333725,25.2960781 574.990192,21.9262166 576.303145,18.9064252 C577.616097,15.8866339 579.410439,13.3045322 581.686224,11.1600427 C583.962009,9.01555316 586.642581,7.36344572 589.72802,6.20367078 C592.813459,5.04389584 596.106732,4.46401707 599.60794,4.46401707 C603.196677,4.46401707 606.588421,5.04389584 609.783273,6.20367078 C612.978124,7.36344572 615.647755,8.92802429 617.792244,10.8974534 L608.207737,22.45138 C607.332435,21.3134876 606.238325,20.44914 604.925372,19.8583112 C603.612419,19.2674825 602.14631,18.9720725 600.527002,18.9720725 C599.214049,18.9720725 597.988645,19.2018358 596.850753,19.6613693 C595.71286,20.1209028 594.717219,20.7883104 593.8638,21.6636122 C593.010381,22.5389141 592.342973,23.6002016 591.861557,24.8475068 C591.380141,26.0948119 591.139437,27.4843327 591.139437,29.0161109 C591.139437,30.5478892 591.391082,31.9155278 591.894381,33.1190678 C592.397679,34.3226078 593.076028,35.3620132 593.929447,36.237315 C594.782867,37.1126169 595.778508,37.7800245 596.9164,38.239558 C598.054292,38.6990914 599.257814,38.9288547 600.527002,38.9288547 C602.321371,38.9288547 603.864067,38.556857 605.155137,37.8128505 C606.446208,37.0688439 607.463731,36.1935552 608.207737,35.1869581 L617.792244,46.6752373 C615.69152,48.7759617 613.109418,50.4499514 610.045862,51.6972565 C606.982305,52.9445616 603.503033,53.5682048 599.60794,53.5682048 C596.106732,53.5682048 592.813459,52.9773849 589.72802,51.7957275 C586.642581,50.61407 583.962009,48.9400803 581.686224,46.7737083 C579.410439,44.6073362 577.616097,42.0252345 576.303145,39.0273257 C574.990192,36.0294169 574.333725,32.6923787 574.333725,29.0161109 L574.333725,29.0161109 Z M637.625026,37.9441451 C635.393007,37.9441451 633.598665,38.1848495 632.241947,38.6662655 C630.885229,39.1476815 630.20688,40.0448524 630.20688,41.3578052 C630.20688,41.8392212 630.316291,42.2440422 630.535117,42.5722804 C630.753942,42.9005186 631.038411,43.1740463 631.388532,43.3928718 C631.738653,43.6116973 632.121591,43.7758139 632.53736,43.8852266 C632.953128,43.9946394 633.336067,44.0493449 633.686188,44.0493449 C635.130436,44.0493449 636.290193,43.5898183 637.165495,42.6707514 C638.040797,41.7516845 638.478441,40.5700447 638.478441,39.1257967 L638.478441,37.9441451 L637.625026,37.9441451 Z M637.493732,30.3290571 C637.493732,29.2786949 637.132675,28.5018762 636.410551,27.9985776 C635.688427,27.4952791 634.73655,27.2436336 633.554893,27.2436336 C632.15441,27.2436336 630.830536,27.5390435 629.583231,28.1298723 C628.335926,28.720701 627.230874,29.4099909 626.268042,30.1977625 L618.718601,22.7139692 C620.819325,20.700775 623.313898,19.1471375 626.202394,18.0530102 C629.09089,16.9588829 632.066872,16.4118275 635.130428,16.4118275 C638.41281,16.4118275 641.126205,16.871354 643.270695,17.790421 C645.415184,18.7094879 647.111056,19.9786565 648.358361,21.5979649 C649.605666,23.2172733 650.480955,25.0991441 650.984254,27.2436336 C651.487552,29.3881231 651.739198,31.6638737 651.739198,34.0709538 L651.739198,52.2552586 L638.01891,52.2552586 L638.01891,49.4980716 L637.887615,49.4980716 C637.012314,50.8110244 635.765027,51.7519597 634.145719,52.3209059 C632.52641,52.8898521 630.950891,53.174321 629.419112,53.174321 C628.062395,53.174321 626.672874,52.977381 625.250508,52.5834952 C623.828143,52.1896093 622.537092,51.555025 621.377317,50.6797232 C620.217542,49.8044213 619.265666,48.666546 618.521659,47.2660631 C617.777652,45.8655801 617.405655,44.1368849 617.405655,42.0799256 C617.405655,39.6728455 618.029298,37.714387 619.276603,36.2044914 C620.523908,34.6945957 622.110369,33.5129559 624.036033,32.6595366 C625.961697,31.8061173 628.117096,31.2262386 630.502293,30.9198829 C632.887491,30.6135273 635.217947,30.4603518 637.493732,30.4603518 L637.493732,30.3290571 Z M657.063924,17.7247737 L671.834569,17.7247737 L671.834569,21.5323176 L671.965863,21.5323176 C672.841165,20.26313 674.143157,19.158078 675.871878,18.2171285 C677.600599,17.276179 679.58094,16.8057113 681.81296,16.8057113 C684.22004,16.8057113 686.222263,17.2433557 687.819689,18.1186575 C689.417115,18.9939594 690.686283,20.1208936 691.627233,21.499494 C692.568182,22.8780944 693.224649,24.4207907 693.596652,26.1276293 C693.968655,27.8344679 694.154654,29.5412809 694.154654,31.2481195 L694.154654,52.2552586 L678.924478,52.2552586 L678.924478,33.8740119 C678.924478,32.1234082 678.650951,30.898004 678.103887,30.1977625 C677.556823,29.497521 676.73624,29.1474056 675.642113,29.1474056 C674.635516,29.1474056 673.814932,29.5522266 673.180339,30.3618808 C672.545745,31.171535 672.228453,32.3422336 672.228453,33.8740119 L672.228453,52.2552586 L657.063924,52.2552586 L657.063924,17.7247737 Z M718.648395,53.5682048 C715.716134,53.5682048 713.024621,53.1305605 710.573776,52.2552586 C708.122931,51.3799568 706.000355,50.1326704 704.205987,48.513362 C702.411618,46.8940536 701.011156,44.9465362 700.004559,42.6707514 C698.997962,40.3949666 698.494671,37.8347471 698.494671,34.9900161 C698.494671,32.1890502 699.008903,29.6397719 700.037382,27.3421045 C701.065862,25.0444372 702.499147,23.0859787 704.337281,21.4666703 C706.175415,19.8473619 708.330814,18.6000755 710.803541,17.7247737 C713.276269,16.8494718 715.956841,16.4118275 718.845337,16.4118275 C720.026994,16.4118275 721.219575,16.5102974 722.423115,16.7072404 C723.626655,16.9041833 724.786413,17.177711 725.902423,17.5278317 C727.018432,17.8779525 728.046897,18.2718324 728.987846,18.7094833 C729.928796,19.1471342 730.727497,19.628543 731.383973,20.1537241 L723.834532,31.0511775 C723.309351,30.4384663 722.620061,29.9679986 721.766642,29.6397604 C720.913223,29.3115222 720.09264,29.1474056 719.304868,29.1474056 C718.560861,29.1474056 717.838748,29.2677578 717.138507,29.5084658 C716.438265,29.7491738 715.814622,30.1211715 715.267558,30.62447 C714.720495,31.1277686 714.271909,31.7404707 713.921789,32.4625947 C713.571668,33.1847187 713.39661,34.0271841 713.39661,34.9900161 C713.39661,35.9528482 713.571668,36.7953135 713.921789,37.5174376 C714.271909,38.2395616 714.720495,38.8303815 715.267558,39.2899149 C715.814622,39.7494484 716.438265,40.0995639 717.138507,40.3402719 C717.838748,40.5809799 718.560861,40.7013321 719.304868,40.7013321 C720.18017,40.7013321 721.033576,40.5372155 721.865113,40.2089773 C722.69665,39.8807391 723.374999,39.4321536 723.90018,38.8632074 L731.515268,49.4980716 C730.07102,50.635964 728.20009,51.5987816 725.902423,52.3865532 C723.604755,53.1743249 721.18677,53.5682048 718.648395,53.5682048 L718.648395,53.5682048 Z M756.468539,30.3947045 C756.468539,29.1692819 756.019954,28.1626999 755.12277,27.3749282 C754.225585,26.5871565 753.011122,26.1932766 751.479344,26.1932766 C749.81627,26.1932766 748.52522,26.6528032 747.606153,27.5718701 C746.687086,28.4909371 746.161912,29.4318724 746.030617,30.3947045 L756.468539,30.3947045 Z M769.532354,35.3182527 C769.532354,35.8871989 769.521413,36.4670777 769.49953,37.0579064 C769.477648,37.6487351 769.444825,38.141085 769.401059,38.5349709 L746.161912,38.5349709 C746.205677,39.1476822 746.413558,39.6947376 746.785561,40.1761536 C747.157565,40.6575696 747.617091,41.0733318 748.164155,41.4234525 C748.711218,41.7735732 749.32392,42.0361599 750.002279,42.2112202 C750.680638,42.3862806 751.369928,42.4738095 752.07017,42.4738095 C753.470653,42.4738095 754.641351,42.222164 755.582301,41.7188654 C756.52325,41.2155668 757.234422,40.6575703 757.715838,40.044859 L768.481997,45.4935857 C766.950219,47.988196 764.729174,49.9575956 761.818795,51.4018436 C758.908417,52.8460916 755.527614,53.5682048 751.676286,53.5682048 C749.181676,53.5682048 746.752749,53.1743249 744.389434,52.3865532 C742.026119,51.5987816 739.936368,50.4280829 738.120116,48.8744222 C736.303865,47.3207614 734.848698,45.3841851 733.75457,43.0646352 C732.660443,40.7450854 732.113387,38.0535726 732.113387,34.9900161 C732.113387,32.1452852 732.616679,29.5741246 733.623276,27.2764572 C734.629873,24.9787899 735.997511,23.0312725 737.726232,21.4338467 C739.454954,19.8364208 741.49,18.6000755 743.831432,17.7247737 C746.172865,16.8494718 748.678379,16.4118275 751.348049,16.4118275 C754.061485,16.4118275 756.534176,16.8822951 758.766195,17.8232446 C760.998215,18.7641941 762.912909,20.0771272 764.510335,21.7620832 C766.107761,23.4470393 767.344106,25.4492622 768.219408,27.7688121 C769.09471,30.0883619 769.532354,32.604817 769.532354,35.3182527 L769.532354,35.3182527 Z M773.938018,17.7247737 L788.511721,17.7247737 L788.511721,21.6636122 L788.643015,21.6636122 C789.387022,20.2631293 790.492074,19.1033718 791.958205,18.1843048 C793.424335,17.2652379 795.142089,16.8057113 797.111518,16.8057113 C798.293176,16.8057113 799.255993,16.9151224 800,17.1339479 L798.818348,30.0008206 C798.336932,29.8695253 797.800818,29.7710553 797.209989,29.7054077 C796.619161,29.6397601 796.083046,29.6069367 795.60163,29.6069367 C793.632201,29.6069367 792.056681,30.1758744 790.875024,31.3137668 C789.693366,32.4516592 789.102547,33.8521211 789.102547,35.5151946 L789.102547,52.2552586 L773.938018,52.2552586 L773.938018,17.7247737 Z" id="A-World-Without-Canc" fill="#FFFFFF" sketch:type="MSShapeGroup"></path>
                    <g id="MUef-BW" transform="translate(307.000000, 69.000000)">
                        <path d="M16.799,39.439 C32.282,39.504 33.631,32.955 33.631,31.002 L33.631,1.717 L19.047,1.717 L16.814,6.755 L14.582,1.717 L0,1.717 L0,31.002 C0,32.955 1.347,39.504 16.831,39.439 L16.799,39.439" id="Fill-1" stroke="#FFFFFF" fill="#1A1918" sketch:type="MSShapeGroup"></path>
                        <path d="M16.807,30.624 C21.818,30.624 21.73,28.86 21.762,28.419 L21.762,25.62 C21.762,25.053 21.375,24.611 20.669,24.234 L20.669,22.267 L29.279,22.267 L29.279,24.219 C28.571,24.596 28.186,25.037 28.186,25.604 L28.186,28.105 C28.154,29.932 29.012,34.529 16.807,34.529 C4.6,34.529 5.46,29.932 5.427,28.105 L5.427,25.604 C5.427,25.037 5.042,24.596 4.335,24.219 L4.335,22.267 L12.944,22.267 L12.944,24.234 C12.237,24.611 11.852,25.053 11.852,25.62 L11.852,28.419 C11.883,28.86 11.796,30.624 16.807,30.624" id="Fill-2" fill="#FFFFFF" sketch:type="MSShapeGroup"></path>
                        <path d="M16.807,30.624 C21.818,30.624 21.73,28.86 21.762,28.419 L21.762,25.62 C21.762,25.053 21.375,24.611 20.669,24.234 L20.669,22.267 L29.279,22.267 L29.279,24.219 C28.571,24.596 28.186,25.037 28.186,25.604 L28.186,28.105 C28.154,29.932 29.012,34.529 16.807,34.529 C4.6,34.529 5.46,29.932 5.427,28.105 L5.427,25.604 C5.427,25.037 5.042,24.596 4.335,24.219 L4.335,22.267 L12.944,22.267 L12.944,24.234 C12.237,24.611 11.852,25.053 11.852,25.62 L11.852,28.419 C11.883,28.86 11.796,30.624 16.807,30.624 L16.807,30.624 Z" id="Stroke-3" stroke="#6F8F9D" stroke-width="0.417" sketch:type="MSShapeGroup"></path>
                        <path d="M16.807,13.438 L20.966,5.952 L29.269,5.952 L29.269,7.905 C28.562,8.282 28.178,8.73 28.178,9.298 L28.178,15.243 C28.178,15.809 28.562,16.25 29.269,16.628 L29.269,18.58 L21.408,18.58 L21.408,16.613 C22.114,16.234 22.5,15.794 22.5,15.229 L22.5,10.699 L17.778,18.58 L15.836,18.58 L11.113,10.699 L11.113,15.229 C11.113,15.794 11.498,16.234 12.205,16.613 L12.205,18.58 L4.343,18.58 L4.343,16.628 C5.05,16.25 5.436,15.809 5.436,15.243 L5.436,9.298 C5.436,8.73 5.05,8.282 4.343,7.905 L4.343,5.952 L12.648,5.952 L16.807,13.438" id="Fill-4" fill="#FFFFFF" sketch:type="MSShapeGroup"></path>
                        <path d="M16.807,13.438 L20.966,5.952 L29.269,5.952 L29.269,7.905 C28.562,8.282 28.178,8.73 28.178,9.298 L28.178,15.243 C28.178,15.809 28.562,16.25 29.269,16.628 L29.269,18.58 L21.408,18.58 L21.408,16.613 C22.114,16.234 22.5,15.794 22.5,15.229 L22.5,10.699 L17.778,18.58 L15.836,18.58 L11.113,10.699 L11.113,15.229 C11.113,15.794 11.498,16.234 12.205,16.613 L12.205,18.58 L4.343,18.58 L4.343,16.628 C5.05,16.25 5.436,15.809 5.436,15.243 L5.436,9.298 C5.436,8.73 5.05,8.282 4.343,7.905 L4.343,5.952 L12.648,5.952 L16.807,13.438" id="Stroke-5" stroke="#6F8F9D" stroke-width="0.417" sketch:type="MSShapeGroup"></path>
                        <path d="M45.482,17.403 C42.248,17.403 42.16,17.447 42.005,17.447 C41.83,17.447 41.83,17.359 41.83,17.161 C41.83,16.919 41.83,16.787 42.292,16.787 C44.03,16.787 44.162,16.413 44.184,15.819 C44.228,14.719 44.25,13.289 44.25,12.343 L44.25,6.952 C44.25,5.39 44.228,4.861 44.206,3.85 C44.184,2.551 43.81,2.375 42.049,2.375 C41.808,2.375 41.808,2.199 41.808,2.001 C41.808,1.869 41.852,1.715 42.005,1.715 C42.182,1.715 44.096,1.803 45.482,1.803 C48.056,1.803 51.269,1.715 52.875,1.715 C53.381,1.715 53.667,1.715 53.711,1.891 C54.283,3.915 54.679,4.861 54.679,4.993 C54.679,5.126 54.547,5.147 54.349,5.147 C53.997,5.147 53.821,4.51 51.885,2.881 C51.555,2.595 51.027,2.375 50.367,2.375 C49.794,2.375 47.902,2.463 47.066,2.507 C46.56,2.529 46.428,2.969 46.428,4.201 L46.428,9.262 L47.902,9.262 C50.279,9.262 50.455,8.294 50.499,8.052 C50.763,6.424 50.829,6.424 50.983,6.424 C51.247,6.424 51.401,6.445 51.401,6.578 L51.401,9.878 C51.401,11.198 51.511,11.946 51.511,12.497 C51.511,12.65 51.357,12.673 51.225,12.673 C50.961,12.673 50.917,12.585 50.895,12.431 C50.564,10.055 50.168,9.922 48.034,9.922 L46.428,9.922 L46.428,15.599 C46.428,16.457 46.692,16.743 47.506,16.743 L52.743,16.743 C53.579,16.743 54.855,14.631 55.317,14.037 C55.405,13.949 55.471,13.905 55.604,13.905 C55.823,13.905 55.956,13.927 55.956,14.059 C55.956,14.125 54.812,17.403 54.569,17.403 L45.482,17.403" id="Fill-6" fill="#FFFFFF" sketch:type="MSShapeGroup"></path>
                        <path d="M60.244,15.357 C60.244,16.611 60.288,16.875 61.256,16.875 C61.85,16.875 61.894,16.897 61.894,17.161 C61.894,17.293 61.894,17.447 61.674,17.447 C61.564,17.447 61.278,17.403 59.738,17.403 C57.669,17.403 57.097,17.447 56.877,17.447 C56.701,17.447 56.701,17.315 56.701,17.205 C56.701,16.919 56.723,16.875 57.537,16.875 C58,16.875 58.197,16.655 58.33,16.348 C58.417,16.149 58.461,13.245 58.461,12.299 L58.461,4.598 C58.461,2.684 58.396,2.419 57.186,2.31 C57.053,2.287 56.987,2.199 56.987,2.045 C56.987,1.869 57.053,1.759 57.163,1.737 C58.945,1.429 60.002,0.791 60.222,0.791 C60.31,0.791 60.354,0.901 60.354,1.033 C60.354,1.121 60.244,1.341 60.244,4.201 L60.244,15.357" id="Fill-7" fill="#FFFFFF" sketch:type="MSShapeGroup"></path>
                        <path d="M66.36,15.357 C66.36,16.611 66.404,16.875 67.372,16.875 C67.966,16.875 68.01,16.897 68.01,17.161 C68.01,17.293 68.01,17.447 67.79,17.447 C67.68,17.447 67.394,17.403 65.854,17.403 C63.786,17.403 63.213,17.447 62.994,17.447 C62.817,17.447 62.817,17.315 62.817,17.205 C62.817,16.919 62.839,16.875 63.653,16.875 C64.116,16.875 64.313,16.655 64.446,16.348 C64.534,16.149 64.578,13.245 64.578,12.299 L64.578,4.598 C64.578,2.684 64.512,2.419 63.302,2.31 C63.169,2.287 63.104,2.199 63.104,2.045 C63.104,1.869 63.169,1.759 63.279,1.737 C65.062,1.429 66.118,0.791 66.338,0.791 C66.426,0.791 66.47,0.901 66.47,1.033 C66.47,1.121 66.36,1.341 66.36,4.201 L66.36,15.357" id="Fill-8" fill="#FFFFFF" sketch:type="MSShapeGroup"></path>
                        <path d="M70.43,2.969 C70.43,2.375 70.914,1.803 71.574,1.803 C72.234,1.803 72.718,2.375 72.718,2.969 C72.718,3.563 72.234,4.136 71.574,4.136 C70.914,4.136 70.43,3.563 70.43,2.969 L70.43,2.969 Z M72.476,15.357 C72.476,16.611 72.52,16.875 73.488,16.875 C73.972,16.875 74.017,16.897 74.017,17.161 C74.017,17.293 74.017,17.447 73.796,17.447 C73.687,17.447 73.4,17.403 71.97,17.403 C69.902,17.403 69.33,17.447 68.999,17.447 C68.824,17.447 68.824,17.315 68.824,17.205 C68.824,16.919 68.846,16.875 69.66,16.875 C70.232,16.875 70.43,16.655 70.562,16.348 C70.65,16.149 70.694,14.587 70.694,13.179 L70.694,10.164 C70.694,9.395 70.496,8.954 69.396,8.844 C69.22,8.822 69.198,8.734 69.198,8.58 C69.198,8.404 69.264,8.294 69.373,8.272 C71.882,7.766 72.19,7.193 72.454,7.193 C72.542,7.193 72.586,7.304 72.586,7.436 C72.586,7.523 72.476,7.744 72.476,10.604 L72.476,15.357 L72.476,15.357 Z" id="Fill-9" fill="#FFFFFF" sketch:type="MSShapeGroup"></path>
                        <path d="M81.981,14.719 C81.981,15.797 81.409,17.711 78.395,17.711 C77.998,17.711 76.722,17.535 75.864,17.535 C75.82,17.535 75.754,17.47 75.754,17.426 C75.732,17.205 75.248,15.268 75.248,15.049 C75.248,14.917 75.556,14.917 75.644,14.917 C76.172,14.917 76.304,17.14 78.416,17.14 C79.979,17.14 80.419,15.951 80.419,15.181 C80.419,12.871 75.49,13.619 75.49,10.494 C75.49,8.69 76.986,7.502 78.835,7.502 C79.847,7.502 81.123,7.678 81.211,7.7 C81.497,7.766 81.541,8.184 81.541,8.316 C81.585,9.218 81.783,9.79 81.783,10.076 C81.783,10.208 81.651,10.252 81.541,10.252 C81.343,10.252 81.211,10.23 81.101,9.944 C80.947,9.57 80.374,8.074 78.812,8.074 C77.778,8.074 77.052,8.668 77.052,9.725 C77.052,10.494 77.602,10.956 78.086,11.198 C80.396,12.299 81.981,12.232 81.981,14.719" id="Fill-10" fill="#FFFFFF" sketch:type="MSShapeGroup"></path>
                        <path d="M91.506,6.952 C91.506,5.39 91.484,4.861 91.462,3.85 C91.44,2.551 91.066,2.375 89.306,2.375 C89.064,2.375 89.064,2.199 89.064,2.001 C89.064,1.869 89.108,1.715 89.262,1.715 C89.438,1.715 91.352,1.803 92.738,1.803 C95.312,1.803 98.525,1.715 100.131,1.715 C100.638,1.715 100.924,1.715 100.967,1.891 C101.539,3.915 101.936,4.861 101.936,4.993 C101.936,5.126 101.804,5.147 101.605,5.147 C101.254,5.147 101.078,4.51 99.141,2.881 C98.811,2.595 98.283,2.375 97.623,2.375 C97.051,2.375 95.159,2.463 94.323,2.507 C93.816,2.529 93.685,2.969 93.685,4.201 L93.685,9.395 L95.159,9.395 C97.535,9.395 97.711,8.426 97.755,8.184 C98.02,6.556 98.085,6.556 98.239,6.556 C98.503,6.556 98.657,6.578 98.657,6.71 L98.657,10.01 C98.657,11.33 98.768,12.078 98.768,12.629 C98.768,12.782 98.613,12.805 98.48,12.805 C98.217,12.805 98.173,12.717 98.15,12.562 C97.821,10.187 97.425,10.055 95.29,10.055 L93.685,10.055 L93.685,12.343 C93.685,13.289 93.706,14.719 93.751,15.819 C93.772,16.413 93.904,16.787 95.643,16.787 C96.479,16.787 96.479,16.919 96.479,17.161 C96.479,17.359 96.479,17.447 96.083,17.447 C95.929,17.447 95.841,17.403 92.585,17.403 C89.504,17.403 89.416,17.447 89.262,17.447 C89.086,17.447 89.086,17.359 89.086,17.161 C89.086,16.919 89.086,16.787 89.548,16.787 C91.286,16.787 91.418,16.413 91.44,15.819 C91.484,14.719 91.506,13.289 91.506,12.343 L91.506,6.952" id="Fill-11" fill="#FFFFFF" sketch:type="MSShapeGroup"></path>
                        <path d="M103.826,2.969 C103.826,2.375 104.311,1.803 104.971,1.803 C105.63,1.803 106.114,2.375 106.114,2.969 C106.114,3.563 105.63,4.136 104.971,4.136 C104.311,4.136 103.826,3.563 103.826,2.969 L103.826,2.969 Z M105.872,15.357 C105.872,16.611 105.916,16.875 106.885,16.875 C107.368,16.875 107.412,16.897 107.412,17.161 C107.412,17.293 107.412,17.447 107.192,17.447 C107.082,17.447 106.797,17.403 105.366,17.403 C103.298,17.403 102.726,17.447 102.396,17.447 C102.22,17.447 102.22,17.315 102.22,17.205 C102.22,16.919 102.242,16.875 103.056,16.875 C103.628,16.875 103.826,16.655 103.958,16.348 C104.046,16.149 104.09,14.587 104.09,13.179 L104.09,10.164 C104.09,9.395 103.893,8.954 102.791,8.844 C102.615,8.822 102.594,8.734 102.594,8.58 C102.594,8.404 102.66,8.294 102.77,8.272 C105.278,7.766 105.586,7.193 105.85,7.193 C105.938,7.193 105.982,7.304 105.982,7.436 C105.982,7.523 105.872,7.744 105.872,10.604 L105.872,15.357 L105.872,15.357 Z" id="Fill-12" fill="#FFFFFF" sketch:type="MSShapeGroup"></path>
                        <path d="M115.377,14.719 C115.377,15.797 114.805,17.711 111.791,17.711 C111.395,17.711 110.118,17.535 109.26,17.535 C109.216,17.535 109.15,17.47 109.15,17.426 C109.128,17.205 108.645,15.268 108.645,15.049 C108.645,14.917 108.952,14.917 109.04,14.917 C109.568,14.917 109.7,17.14 111.813,17.14 C113.375,17.14 113.814,15.951 113.814,15.181 C113.814,12.871 108.886,13.619 108.886,10.494 C108.886,8.69 110.383,7.502 112.23,7.502 C113.242,7.502 114.519,7.678 114.607,7.7 C114.893,7.766 114.938,8.184 114.938,8.316 C114.98,9.218 115.179,9.79 115.179,10.076 C115.179,10.208 115.047,10.252 114.938,10.252 C114.738,10.252 114.607,10.23 114.496,9.944 C114.343,9.57 113.771,8.074 112.209,8.074 C111.174,8.074 110.448,8.668 110.448,9.725 C110.448,10.494 110.998,10.956 111.482,11.198 C113.793,12.299 115.377,12.232 115.377,14.719" id="Fill-13" fill="#FFFFFF" sketch:type="MSShapeGroup"></path>
                        <path d="M124.859,15.555 C125.035,15.401 125.123,15.203 125.232,15.203 C125.299,15.203 125.563,15.357 125.563,15.511 C125.563,15.599 125.519,15.709 125.387,15.841 C124.265,17.117 122.988,17.711 121.536,17.711 C118.984,17.711 116.981,15.885 116.981,12.738 C116.981,9.482 119.138,7.502 121.977,7.502 C124.99,7.502 125.563,9.13 125.563,9.592 C125.563,9.856 125.211,10.538 124.396,10.538 C123.692,10.538 123.604,10.318 123.362,9.108 C123.297,8.778 123.143,8.074 121.998,8.074 C120.612,8.074 118.896,9.13 118.896,12.738 C118.896,13.729 119.27,16.479 122.637,16.479 C123.451,16.479 124.418,15.929 124.859,15.555" id="Fill-14" fill="#FFFFFF" sketch:type="MSShapeGroup"></path>
                        <path d="M129.785,8.822 C130.93,8.052 131.898,7.502 133.24,7.502 C133.988,7.502 136.145,7.656 136.145,10.803 L136.145,16.083 C136.145,16.457 136.211,16.875 137.574,16.875 C137.795,16.875 137.795,17.007 137.795,17.161 C137.795,17.293 137.795,17.447 137.486,17.447 C136.826,17.447 136.431,17.403 135.264,17.403 C133.482,17.403 133.13,17.447 132.954,17.447 C132.822,17.447 132.8,17.293 132.8,17.184 C132.8,17.073 132.844,16.875 133.107,16.875 C134.164,16.875 134.362,16.787 134.362,16.061 L134.362,12.123 C134.362,10.076 134.186,8.712 131.898,8.712 C130.951,8.712 129.873,9.152 129.785,9.526 L129.785,15.357 C129.785,16.611 129.83,16.875 130.798,16.875 C131.392,16.875 131.436,16.897 131.436,17.161 C131.436,17.293 131.436,17.447 131.216,17.447 C131.105,17.447 130.82,17.403 129.279,17.403 C127.211,17.403 126.639,17.447 126.419,17.447 C126.243,17.447 126.243,17.315 126.243,17.205 C126.243,16.919 126.266,16.875 127.079,16.875 C127.541,16.875 127.739,16.655 127.871,16.348 C127.959,16.149 128.004,13.245 128.004,12.299 L128.004,4.598 C128.004,2.684 127.938,2.419 126.727,2.31 C126.596,2.287 126.529,2.199 126.529,2.045 C126.529,1.869 126.596,1.759 126.705,1.737 C128.487,1.429 129.543,0.791 129.764,0.791 C129.852,0.791 129.896,0.901 129.896,1.033 C129.896,1.121 129.785,1.341 129.785,4.201 L129.785,8.822" id="Fill-15" fill="#FFFFFF" sketch:type="MSShapeGroup"></path>
                        <path d="M144.702,10.803 C145.143,10.803 145.45,10.67 145.45,10.076 C145.45,8.36 144.262,7.986 143.514,7.986 C141.93,7.986 141.27,9.307 141.049,10.803 L144.702,10.803 L144.702,10.803 Z M140.918,11.463 C140.852,11.881 140.829,12.299 140.829,12.717 C140.829,14.146 142.039,16.348 144.438,16.348 C145.45,16.348 146.309,16.039 147.012,15.027 C147.145,14.851 147.232,14.653 147.342,14.653 C147.496,14.653 147.694,14.851 147.694,14.917 C147.694,14.983 146.814,17.711 143.91,17.711 C140.764,17.711 139.113,15.775 139.113,12.694 C139.113,9.548 141.248,7.414 143.514,7.414 C147.166,7.414 147.452,10.561 147.452,11.221 C147.452,11.44 147.364,11.463 147.188,11.463 L140.918,11.463 L140.918,11.463 Z" id="Fill-16" fill="#FFFFFF" sketch:type="MSShapeGroup"></path>
                        <path d="M152.313,15.357 C152.313,16.611 152.357,16.875 153.326,16.875 C153.92,16.875 153.964,16.897 153.964,17.161 C153.964,17.293 153.964,17.447 153.744,17.447 C153.634,17.447 153.348,17.403 151.808,17.403 C149.739,17.403 149.167,17.447 148.947,17.447 C148.771,17.447 148.771,17.315 148.771,17.205 C148.771,16.919 148.793,16.875 149.607,16.875 C150.069,16.875 150.268,16.655 150.399,16.348 C150.487,16.149 150.531,13.245 150.531,12.299 L150.531,4.598 C150.531,2.684 150.465,2.419 149.255,2.31 C149.123,2.287 149.057,2.199 149.057,2.045 C149.057,1.869 149.123,1.759 149.232,1.737 C151.016,1.429 152.071,0.791 152.291,0.791 C152.379,0.791 152.424,0.901 152.424,1.033 C152.424,1.121 152.313,1.341 152.313,4.201 L152.313,15.357" id="Fill-17" fill="#FFFFFF" sketch:type="MSShapeGroup"></path>
                        <path d="M56.813,35.156 C56.946,35.156 57.056,35.179 57.056,35.421 C57.056,35.685 56.748,37.863 56.748,38.325 C56.748,38.522 56.66,38.655 56.439,38.721 C55.317,39.073 53.513,39.557 50.389,39.557 C44.47,39.557 42.248,34.849 42.248,31.9 C42.248,26.598 46.186,23.362 50.389,23.362 C54.129,23.362 54.767,24.199 55.361,24.199 C55.757,24.199 55.912,23.825 56.22,23.825 C56.264,23.825 56.374,23.869 56.374,24.089 C56.374,25.431 56.792,27.434 56.792,27.609 C56.792,27.808 56.527,27.895 56.374,27.895 C56.308,27.895 56.197,27.895 56.131,27.72 C55.186,25.299 53.799,23.935 50.961,23.935 C48.232,23.935 44.866,26.531 44.866,31.811 C44.866,36.675 48.342,38.985 51.357,38.985 C53.029,38.985 55.208,38.06 56.461,35.332 C56.505,35.223 56.594,35.156 56.813,35.156" id="Fill-18" fill="#FFFFFF" sketch:type="MSShapeGroup"></path>
                        <path d="M63.852,34.805 C63.852,34.694 63.786,34.584 63.698,34.584 C63.588,34.584 61.96,35.311 61.52,35.662 C60.903,36.125 60.793,36.455 60.793,37.268 C60.793,37.951 61.08,38.633 61.828,38.633 C62.664,38.633 63.852,37.863 63.852,37.467 L63.852,34.805 L63.852,34.805 Z M65.634,38.06 C65.634,38.413 65.788,38.501 66.008,38.501 C66.448,38.501 66.778,37.995 66.955,37.995 C67.064,37.995 67.24,38.148 67.24,38.237 C67.24,38.501 65.81,39.557 65.04,39.557 C64.248,39.557 64.072,39.051 63.83,38.281 C62.532,39.293 61.915,39.557 60.992,39.557 C59.275,39.557 58.879,38.303 58.879,37.599 C58.879,36.476 59.54,35.553 63.852,33.946 L63.852,31.944 C63.852,30.8 62.532,30.206 62.004,30.206 C61.498,30.206 60.441,30.998 60.441,31.218 C60.441,31.526 60.728,31.834 60.728,32.318 C60.728,32.56 60.529,33.154 59.649,33.154 C58.901,33.154 58.725,32.582 58.725,32.34 C58.725,31.746 58.879,31.46 60.529,30.359 C62.18,29.281 62.422,29.26 62.906,29.26 C63.61,29.26 65.634,29.788 65.634,31.79 L65.634,38.06 L65.634,38.06 Z" id="Fill-19" fill="#FFFFFF" sketch:type="MSShapeGroup"></path>
                        <path d="M71.529,37.203 C71.529,38.457 71.573,38.721 72.541,38.721 C73.135,38.721 73.18,38.743 73.18,39.007 C73.18,39.139 73.18,39.293 72.96,39.293 C72.85,39.293 72.563,39.249 71.023,39.249 C68.955,39.249 68.383,39.293 68.053,39.293 C67.877,39.293 67.877,39.161 67.877,39.051 C67.877,38.765 67.899,38.721 68.713,38.721 C69.285,38.721 69.483,38.501 69.615,38.193 C69.703,37.995 69.747,36.433 69.747,35.024 L69.747,32.01 C69.747,31.24 69.549,30.8 68.449,30.689 C68.273,30.668 68.251,30.58 68.251,30.426 C68.251,30.25 68.317,30.14 68.427,30.118 C70.935,29.611 71.243,29.039 71.507,29.039 C71.551,29.039 71.573,29.105 71.573,29.281 C71.573,29.414 71.529,29.897 71.529,30.866 C72.673,30.096 73.795,29.348 74.984,29.348 C75.732,29.348 77.888,29.502 77.888,32.648 L77.888,37.929 C77.888,38.303 77.954,38.721 79.318,38.721 C79.539,38.721 79.539,38.853 79.539,39.007 C79.539,39.139 79.539,39.293 79.23,39.293 C78.57,39.293 78.174,39.249 77.008,39.249 C75.226,39.249 74.873,39.293 74.698,39.293 C74.565,39.293 74.544,39.139 74.544,39.029 C74.544,38.919 74.588,38.721 74.852,38.721 C75.908,38.721 76.106,38.633 76.106,37.907 L76.106,33.969 C76.106,31.922 75.93,30.558 73.642,30.558 C72.806,30.558 71.617,31.306 71.529,31.57 L71.529,37.203" id="Fill-20" fill="#FFFFFF" sketch:type="MSShapeGroup"></path>
                        <path d="M88.602,37.4 C88.778,37.247 88.866,37.049 88.976,37.049 C89.042,37.049 89.306,37.203 89.306,37.356 C89.306,37.444 89.262,37.555 89.13,37.686 C88.008,38.963 86.731,39.557 85.279,39.557 C82.727,39.557 80.725,37.73 80.725,34.584 C80.725,31.328 82.881,29.348 85.719,29.348 C88.734,29.348 89.306,30.976 89.306,31.437 C89.306,31.702 88.954,32.384 88.14,32.384 C87.436,32.384 87.348,32.164 87.105,30.954 C87.04,30.624 86.886,29.92 85.741,29.92 C84.355,29.92 82.639,30.976 82.639,34.584 C82.639,35.574 83.013,38.325 86.379,38.325 C87.194,38.325 88.162,37.774 88.602,37.4" id="Fill-21" fill="#FFFFFF" sketch:type="MSShapeGroup"></path>
                        <path d="M96.213,32.648 C96.653,32.648 96.961,32.516 96.961,31.922 C96.961,30.206 95.773,29.832 95.025,29.832 C93.441,29.832 92.781,31.152 92.561,32.648 L96.213,32.648 L96.213,32.648 Z M92.429,33.309 C92.363,33.726 92.341,34.144 92.341,34.562 C92.341,35.992 93.551,38.193 95.949,38.193 C96.961,38.193 97.819,37.885 98.523,36.873 C98.655,36.696 98.744,36.499 98.854,36.499 C99.008,36.499 99.205,36.696 99.205,36.763 C99.205,36.829 98.325,39.557 95.421,39.557 C92.274,39.557 90.624,37.621 90.624,34.54 C90.624,31.393 92.759,29.26 95.025,29.26 C98.678,29.26 98.963,32.406 98.963,33.066 C98.963,33.286 98.875,33.309 98.699,33.309 L92.429,33.309 L92.429,33.309 Z" id="Fill-22" fill="#FFFFFF" sketch:type="MSShapeGroup"></path>
                        <path d="M102.043,32.01 C102.043,31.24 101.845,30.8 100.744,30.689 C100.568,30.668 100.547,30.58 100.547,30.426 C100.547,30.25 100.612,30.14 100.723,30.118 C103.23,29.611 103.539,29.039 103.803,29.039 C103.847,29.039 103.891,29.172 103.891,29.26 C103.891,29.523 103.781,30.073 103.781,31.262 C104.507,30.447 105.695,29.348 106.861,29.348 C107.631,29.348 108.27,29.766 108.27,30.58 C108.27,31.152 107.83,31.68 107.191,31.68 C106.289,31.68 106.157,30.844 105.497,30.844 C105.123,30.844 104.529,31.174 103.979,31.79 C103.824,31.966 103.824,32.208 103.824,32.428 L103.824,37.423 C103.824,38.237 103.824,38.721 104.925,38.721 C105.739,38.721 105.827,38.743 105.827,38.985 C105.827,39.271 105.739,39.293 105.497,39.293 C104.705,39.293 104.001,39.249 102.988,39.249 C101.229,39.249 100.854,39.293 100.437,39.293 C100.282,39.293 100.238,39.161 100.238,39.007 C100.238,38.787 100.502,38.721 100.92,38.721 C101.867,38.721 102.043,38.545 102.043,37.599 L102.043,32.01" id="Fill-23" fill="#FFFFFF" sketch:type="MSShapeGroup"></path>
                        <path d="M129.72,35.156 C129.852,35.156 129.962,35.179 129.962,35.421 C129.962,35.685 129.654,37.863 129.654,38.325 C129.654,38.522 129.566,38.655 129.346,38.721 C128.224,39.073 126.42,39.557 123.295,39.557 C117.376,39.557 115.154,34.849 115.154,31.9 C115.154,26.598 119.092,23.362 123.295,23.362 C127.035,23.362 127.674,24.199 128.268,24.199 C128.664,24.199 128.818,23.825 129.126,23.825 C129.17,23.825 129.279,23.869 129.279,24.089 C129.279,25.431 129.697,27.434 129.697,27.609 C129.697,27.808 129.434,27.895 129.279,27.895 C129.214,27.895 129.104,27.895 129.037,27.72 C128.092,25.299 126.705,23.935 123.867,23.935 C121.139,23.935 117.771,26.531 117.771,31.811 C117.771,36.675 121.248,38.985 124.264,38.985 C125.936,38.985 128.113,38.06 129.367,35.332 C129.412,35.223 129.5,35.156 129.72,35.156" id="Fill-24" fill="#FFFFFF" sketch:type="MSShapeGroup"></path>
                        <path d="M137.353,32.648 C137.793,32.648 138.101,32.516 138.101,31.922 C138.101,30.206 136.912,29.832 136.164,29.832 C134.58,29.832 133.92,31.152 133.699,32.648 L137.353,32.648 L137.353,32.648 Z M133.568,33.309 C133.502,33.726 133.479,34.144 133.479,34.562 C133.479,35.992 134.689,38.193 137.088,38.193 C138.101,38.193 138.959,37.885 139.662,36.873 C139.795,36.696 139.883,36.499 139.992,36.499 C140.146,36.499 140.345,36.696 140.345,36.763 C140.345,36.829 139.465,39.557 136.561,39.557 C133.414,39.557 131.764,37.621 131.764,34.54 C131.764,31.393 133.898,29.26 136.164,29.26 C139.816,29.26 140.103,32.406 140.103,33.066 C140.103,33.286 140.015,33.309 139.839,33.309 L133.568,33.309 L133.568,33.309 Z" id="Fill-25" fill="#FFFFFF" sketch:type="MSShapeGroup"></path>
                        <path d="M144.854,37.203 C144.854,38.457 144.898,38.721 145.866,38.721 C146.46,38.721 146.504,38.743 146.504,39.007 C146.504,39.139 146.504,39.293 146.284,39.293 C146.174,39.293 145.889,39.249 144.348,39.249 C142.279,39.249 141.707,39.293 141.377,39.293 C141.201,39.293 141.201,39.161 141.201,39.051 C141.201,38.765 141.224,38.721 142.037,38.721 C142.609,38.721 142.808,38.501 142.939,38.193 C143.027,37.995 143.072,36.433 143.072,35.024 L143.072,32.01 C143.072,31.24 142.873,30.8 141.773,30.689 C141.598,30.668 141.576,30.58 141.576,30.426 C141.576,30.25 141.642,30.14 141.752,30.118 C144.26,29.611 144.568,29.039 144.832,29.039 C144.876,29.039 144.898,29.105 144.898,29.281 C144.898,29.414 144.854,29.897 144.854,30.866 C145.998,30.096 147.12,29.348 148.309,29.348 C149.057,29.348 151.213,29.502 151.213,32.648 L151.213,37.929 C151.213,38.303 151.279,38.721 152.643,38.721 C152.863,38.721 152.863,38.853 152.863,39.007 C152.863,39.139 152.863,39.293 152.555,39.293 C151.895,39.293 151.499,39.249 150.332,39.249 C148.551,39.249 148.198,39.293 148.022,39.293 C147.891,39.293 147.868,39.139 147.868,39.029 C147.868,38.919 147.912,38.721 148.176,38.721 C149.232,38.721 149.431,38.633 149.431,37.907 L149.431,33.969 C149.431,31.922 149.254,30.558 146.967,30.558 C146.13,30.558 144.941,31.306 144.854,31.57 L144.854,37.203" id="Fill-26" fill="#FFFFFF" sketch:type="MSShapeGroup"></path>
                        <path d="M157.042,35.377 C157.042,37.709 157.24,38.545 158.979,38.545 C159.727,38.545 160.387,38.039 160.475,38.039 C160.563,38.039 160.717,38.259 160.717,38.391 C160.717,38.522 159.793,39.557 157.79,39.557 C155.26,39.557 155.26,37.379 155.26,36.829 L155.26,31.042 C155.26,30.866 155.193,30.756 155.039,30.756 L153.939,30.756 C153.873,30.756 153.808,30.689 153.808,30.558 C153.808,30.47 153.83,30.338 153.939,30.25 C155.986,28.71 156.404,27.543 156.844,27.543 C156.977,27.543 157.107,27.631 157.107,27.829 C157.107,28.226 157.042,28.6 157.042,29.853 L160.43,29.853 C160.584,29.853 160.65,30.008 160.65,30.315 C160.65,30.601 160.519,30.866 160.057,30.866 C159.902,30.866 158.868,30.756 157.042,30.756 L157.042,35.377" id="Fill-27" fill="#FFFFFF" sketch:type="MSShapeGroup"></path>
                        <path d="M167.096,32.648 C167.536,32.648 167.844,32.516 167.844,31.922 C167.844,30.206 166.656,29.832 165.908,29.832 C164.324,29.832 163.664,31.152 163.443,32.648 L167.096,32.648 L167.096,32.648 Z M163.312,33.309 C163.246,33.726 163.224,34.144 163.224,34.562 C163.224,35.992 164.434,38.193 166.832,38.193 C167.844,38.193 168.702,37.885 169.406,36.873 C169.538,36.696 169.627,36.499 169.736,36.499 C169.891,36.499 170.088,36.696 170.088,36.763 C170.088,36.829 169.208,39.557 166.304,39.557 C163.157,39.557 161.508,37.621 161.508,34.54 C161.508,31.393 163.642,29.26 165.908,29.26 C169.561,29.26 169.846,32.406 169.846,33.066 C169.846,33.286 169.758,33.309 169.582,33.309 L163.312,33.309 L163.312,33.309 Z" id="Fill-28" fill="#FFFFFF" sketch:type="MSShapeGroup"></path>
                        <path d="M172.926,32.01 C172.926,31.24 172.728,30.8 171.627,30.689 C171.451,30.668 171.43,30.58 171.43,30.426 C171.43,30.25 171.495,30.14 171.605,30.118 C174.113,29.611 174.422,29.039 174.686,29.039 C174.729,29.039 174.773,29.172 174.773,29.26 C174.773,29.523 174.664,30.073 174.664,31.262 C175.39,30.447 176.578,29.348 177.744,29.348 C178.514,29.348 179.152,29.766 179.152,30.58 C179.152,31.152 178.713,31.68 178.074,31.68 C177.172,31.68 177.04,30.844 176.38,30.844 C176.006,30.844 175.412,31.174 174.861,31.79 C174.707,31.966 174.707,32.208 174.707,32.428 L174.707,37.423 C174.707,38.237 174.707,38.721 175.808,38.721 C176.622,38.721 176.71,38.743 176.71,38.985 C176.71,39.271 176.622,39.293 176.38,39.293 C175.588,39.293 174.884,39.249 173.871,39.249 C172.111,39.249 171.737,39.293 171.319,39.293 C171.165,39.293 171.121,39.161 171.121,39.007 C171.121,38.787 171.385,38.721 171.803,38.721 C172.75,38.721 172.926,38.545 172.926,37.599 L172.926,32.01" id="Fill-29" fill="#FFFFFF" sketch:type="MSShapeGroup"></path>
                        <path d="M3.237,51.707 C3.356,51.115 3.423,50.926 3.422,50.63 C3.422,50.441 3.3,50.268 2.412,50.243 C2.237,50.243 2.237,50.189 2.236,50.055 C2.236,49.934 2.29,49.893 2.343,49.893 C2.478,49.893 3.569,49.943 4.026,49.942 C4.834,49.94 5.614,49.885 5.856,49.884 C5.937,49.884 5.951,49.991 5.951,50.085 C5.951,50.193 5.871,50.273 5.803,50.274 C5.467,50.274 5.037,50.344 4.942,50.437 C4.822,50.56 4.715,50.802 4.488,51.785 C3.836,54.64 3.49,56.121 3.493,56.982 C3.498,58.84 5.112,58.997 5.718,58.995 C7.05,58.992 8.529,58.248 9.183,55.769 C10.075,52.376 10.181,51.609 10.18,51.03 C10.178,50.478 9.841,50.425 9.478,50.332 C9.208,50.266 8.898,50.239 8.845,50.239 C8.818,50.239 8.764,50.145 8.764,50.078 C8.764,50.024 8.803,49.876 8.938,49.876 C9.086,49.875 9.988,49.927 10.244,49.926 C10.688,49.925 11.912,49.868 12.168,49.867 C12.222,49.867 12.263,49.935 12.263,50.042 C12.249,50.083 12.223,50.177 12.142,50.19 L11.671,50.259 C11.402,50.3 10.972,50.463 10.718,51.298 C10.278,52.739 9.761,55.957 9.052,57.398 C8.289,58.948 7.093,59.584 5.303,59.588 C3.594,59.593 2.218,58.749 2.214,56.999 C2.211,55.963 2.731,54.239 3.237,51.707" id="Fill-30" fill="#FFFFFF" sketch:type="MSShapeGroup"></path>
                        <path d="M14.653,59.457 C14.572,59.457 14.559,59.431 14.558,59.35 C14.557,58.851 16.324,55.038 16.322,54.338 C16.321,54.028 16.092,53.949 15.971,53.949 C15.083,53.951 14.427,55.446 13.141,57.657 C13.074,57.778 12.914,58.183 12.418,59.342 C12.392,59.409 12.365,59.463 12.271,59.463 L11.477,59.465 C11.41,59.465 11.369,59.451 11.369,59.357 C11.368,59.142 13.187,54.481 13.186,54.091 C13.186,54.023 13.172,53.93 13.078,53.93 C12.041,53.933 11.466,55.279 11.467,55.562 C11.467,55.602 11.386,55.63 11.346,55.63 C11.292,55.63 11.225,55.603 11.225,55.509 C11.224,55.185 11.664,53.543 13.117,53.539 L14.113,53.536 C14.194,53.536 14.248,53.563 14.248,53.657 C14.248,53.818 13.258,56.257 13.259,56.687 C13.26,56.755 13.26,56.782 13.3,56.782 C13.381,56.782 13.395,56.715 13.662,56.229 C15.109,53.601 15.512,53.426 16.279,53.424 C16.656,53.423 17.356,53.475 17.358,54.094 C17.361,55.197 15.727,58.297 15.728,58.821 C15.728,58.875 15.822,58.929 15.863,58.929 C16.496,58.927 17.219,57.513 17.367,57.512 C17.42,57.512 17.502,57.592 17.502,57.633 C17.502,57.808 16.456,59.452 15.353,59.455 L14.653,59.457" id="Fill-31" fill="#FFFFFF" sketch:type="MSShapeGroup"></path>
                        <path d="M21.195,50.154 C21.559,50.153 21.842,50.435 21.843,50.798 C21.844,51.161 21.562,51.445 21.199,51.446 C20.835,51.446 20.552,51.165 20.551,50.802 C20.55,50.438 20.832,50.154 21.195,50.154 L21.195,50.154 Z M18.759,55.166 C18.718,55.167 18.665,55.086 18.665,55.018 C18.664,54.884 19.844,53.414 20.854,53.411 C20.948,53.411 21.271,53.451 21.272,53.801 C21.273,54.366 19.574,58.341 19.575,58.569 C19.575,58.663 19.603,58.73 19.669,58.73 C19.993,58.729 20.919,57.759 20.986,57.759 C21.053,57.758 21.134,57.758 21.135,57.893 C21.135,57.96 19.712,59.673 18.771,59.607 C18.38,59.609 18.379,59.272 18.378,59.07 C18.377,58.693 20.144,54.476 20.143,54.409 C20.143,54.369 20.143,54.207 20.035,54.208 C19.685,54.209 19.189,54.802 18.866,55.099 C18.813,55.14 18.786,55.166 18.759,55.166 L18.759,55.166 Z" id="Fill-32" fill="#FFFFFF" sketch:type="MSShapeGroup"></path>
                        <path d="M24.662,53.455 C24.715,53.455 24.782,53.442 24.85,53.428 C24.917,53.415 25.011,53.4 25.105,53.4 C25.213,53.4 25.254,53.508 25.254,53.548 C25.255,54.181 23.739,55.746 23.743,57.495 C23.745,58.06 23.962,58.787 24.662,58.785 C26.115,58.781 27.199,56.235 27.196,55.011 C27.194,54.472 26.548,54.474 26.547,53.989 C26.546,53.639 26.761,53.289 27.151,53.288 C27.729,53.286 27.838,53.677 27.839,54.201 C27.843,55.467 26.467,59.588 24.045,59.595 C23.749,59.595 22.806,59.436 22.803,58.144 C22.799,56.596 24.57,54.506 24.569,54.357 C24.569,54.29 24.569,54.264 24.327,54.264 L22.901,54.268 C22.551,54.268 22.35,54.821 22.256,55.131 C22.23,55.225 22.203,55.252 22.096,55.252 C22.042,55.252 21.948,55.199 21.947,55.146 C21.947,54.983 22.387,53.461 22.603,53.461 L24.662,53.455" id="Fill-33" fill="#FFFFFF" sketch:type="MSShapeGroup"></path>
                        <path d="M32.023,54.405 C32.022,54.163 31.901,53.841 31.591,53.842 C30.865,53.844 30.275,54.841 29.888,56.269 C31.57,56.063 32.024,54.89 32.023,54.405 L32.023,54.405 Z M32.939,54.417 C32.94,55.062 32.378,56.114 29.849,56.604 C29.796,56.901 29.689,57.386 29.69,57.709 C29.691,58.274 29.895,58.839 30.554,58.837 C31.294,58.835 31.925,57.81 32.019,57.81 C32.14,57.81 32.18,57.904 32.18,57.985 C32.181,58.093 31.135,59.576 29.991,59.579 C28.968,59.582 28.698,58.761 28.695,57.887 C28.689,55.343 30.339,53.494 31.819,53.491 C32.452,53.489 32.937,53.758 32.939,54.417 L32.939,54.417 Z" id="Fill-34" fill="#FFFFFF" sketch:type="MSShapeGroup"></path>
                        <path d="M33.65,59.408 C33.583,59.408 33.556,59.354 33.556,59.327 C33.555,59.071 35.373,54.021 35.372,53.939 C35.372,53.846 35.304,53.778 35.103,53.778 C34.322,53.78 33.762,55.639 33.614,55.64 C33.506,55.64 33.465,55.613 33.465,55.546 C33.462,54.47 34.187,53.431 35.452,53.428 L36.138,53.426 C36.286,53.426 36.367,53.479 36.367,53.533 C36.368,53.641 35.285,56.739 35.286,56.86 C35.286,56.914 35.326,56.954 35.353,56.954 C35.447,56.954 35.581,56.645 35.956,55.983 C37.015,54.15 37.618,53.368 38.412,53.366 C38.816,53.365 39.126,53.647 39.127,54.051 C39.128,54.428 38.806,54.738 38.429,54.739 C37.77,54.74 37.809,54.31 37.486,54.31 C37.338,54.31 37.029,54.716 36.909,54.904 C35.448,57.264 35.26,57.546 34.551,59.27 C34.512,59.365 34.471,59.406 34.391,59.406 L33.65,59.408" id="Fill-35" fill="#FFFFFF" sketch:type="MSShapeGroup"></path>
                        <path d="M38.773,58.224 C39.46,58.222 39.354,59.11 40.041,59.108 C40.229,59.108 40.78,58.838 40.779,58.245 C40.778,57.774 40.304,56.848 40.155,56.552 C39.898,56.081 39.628,55.517 39.626,55.059 C39.624,54.022 40.605,53.414 41.574,53.412 C42.207,53.41 42.88,53.61 42.881,54.229 C42.882,54.472 42.641,54.742 42.304,54.742 C41.685,54.744 41.736,53.802 41.104,53.804 C40.714,53.805 40.405,54.06 40.406,54.465 C40.407,54.868 40.758,55.473 41.001,55.971 C41.312,56.602 41.61,57.14 41.612,57.745 C41.615,58.782 40.257,59.553 39.329,59.555 C38.791,59.557 38.292,59.274 38.29,58.723 C38.29,58.48 38.531,58.225 38.773,58.224" id="Fill-36" fill="#FFFFFF" sketch:type="MSShapeGroup"></path>
                        <path d="M45.844,50.091 C46.207,50.09 46.491,50.371 46.491,50.734 C46.492,51.098 46.21,51.382 45.847,51.383 C45.484,51.383 45.2,51.101 45.199,50.738 C45.199,50.375 45.48,50.091 45.844,50.091 L45.844,50.091 Z M43.407,55.102 C43.367,55.103 43.313,55.022 43.313,54.955 C43.312,54.82 44.493,53.351 45.502,53.348 C45.596,53.348 45.919,53.388 45.92,53.737 C45.922,54.303 44.223,58.277 44.223,58.506 C44.224,58.6 44.25,58.667 44.318,58.667 C44.641,58.666 45.567,57.695 45.634,57.695 C45.702,57.694 45.783,57.694 45.783,57.829 C45.783,57.896 44.361,59.609 43.419,59.544 C43.028,59.546 43.027,59.209 43.027,59.007 C43.026,58.63 44.792,54.413 44.792,54.346 C44.792,54.306 44.791,54.143 44.683,54.144 C44.333,54.145 43.837,54.738 43.515,55.035 C43.461,55.076 43.434,55.102 43.407,55.102 L43.407,55.102 Z" id="Fill-37" fill="#FFFFFF" sketch:type="MSShapeGroup"></path>
                        <g id="Group-41">
                            <mask id="mask-2" sketch:name="Clip 39" fill="white">
                                <use xlink:href="#path-1"></use>
                            </mask>
                            <g id="Clip-39"></g>
                            <path d="M47.105,54.3 C46.984,54.3 46.944,54.273 46.944,54.206 C46.943,54.139 47.09,53.734 47.266,53.733 L48.342,53.73 C48.423,53.73 48.45,53.73 48.49,53.704 C48.531,53.649 48.544,53.596 48.958,52.316 C48.971,52.249 49.051,52.222 49.119,52.222 L49.738,52.22 C49.832,52.22 49.859,52.246 49.859,52.341 C49.859,52.408 49.499,53.473 49.5,53.62 C49.5,53.701 49.567,53.727 49.634,53.727 L50.792,53.725 C50.886,53.725 50.926,53.751 50.927,53.886 C50.927,53.939 50.807,54.33 50.658,54.331 C50.43,54.331 50.214,54.318 50.012,54.306 C49.811,54.306 49.609,54.293 49.407,54.294 C49.272,54.294 49.219,54.523 49.139,54.778 C49.032,55.156 47.992,58.711 47.992,58.752 C47.993,58.913 48.073,58.98 48.181,58.98 C48.719,58.979 49.954,57.697 50.021,57.697 C50.088,57.696 50.143,57.724 50.143,57.805 C50.144,58.006 48.748,59.53 47.361,59.534 C47.079,59.535 46.917,59.36 46.916,59.037 C46.915,58.849 48.264,54.553 48.263,54.391 C48.263,54.323 48.195,54.297 48.061,54.297 L47.105,54.3" id="Fill-38" fill="#FFFFFF" sketch:type="MSShapeGroup" mask="url(#mask-2)"></path>
                            <path d="M55.029,53.674 C55.056,53.525 55.109,53.431 55.258,53.431 C55.594,53.43 55.904,53.631 55.905,53.847 C55.906,54.398 54.275,58.695 52.76,60.946 C51.942,62.16 51.271,62.996 49.778,63 C49.307,63.001 48.983,62.867 48.982,62.41 C48.981,62.222 49.209,61.898 49.546,61.897 C50.084,61.895 50.032,62.407 50.866,62.405 C51.324,62.404 52.721,61.162 52.713,58.497 C52.711,57.636 52.406,54.299 51.733,54.328 C51.007,54.356 51.146,55.864 50.93,55.864 C50.742,55.865 50.742,55.77 50.741,55.568 C50.74,55.058 51.288,53.44 52.243,53.438 C53.441,53.435 53.613,57.755 53.614,58.092 C53.615,58.348 53.562,58.751 53.616,58.751 C53.656,58.751 53.937,58.226 54.231,57.376 C54.512,56.568 54.712,55.841 55.029,53.674" id="Fill-40" fill="#FFFFFF" sketch:type="MSShapeGroup" mask="url(#mask-2)"></path>
                        </g>
                        <path d="M62.752,53.707 C61.877,53.71 60.821,56.472 60.825,57.723 C60.826,58.221 60.801,59.149 61.555,59.147 C62.255,59.145 63.473,56.505 63.469,55.132 C63.467,54.137 63.304,53.706 62.752,53.707 L62.752,53.707 Z M61.489,59.498 C60.318,59.501 59.951,58.236 59.949,57.456 C59.944,55.599 61.123,53.361 62.711,53.357 C63.788,53.354 64.342,54.161 64.345,55.399 C64.35,57.189 63.211,59.493 61.489,59.498 L61.489,59.498 Z" id="Fill-42" fill="#FFFFFF" sketch:type="MSShapeGroup"></path>
                        <path d="M65.255,54.199 C65.175,54.199 65.134,54.173 65.134,54.145 C65.134,54.078 65.174,53.809 65.268,53.795 C66.613,53.684 66.654,53.684 66.734,53.455 C66.881,53.037 67.04,52.176 67.388,51.421 C67.923,50.249 69.092,49.397 70.411,49.394 C70.801,49.393 71.556,49.594 71.557,50.092 C71.558,50.481 71.384,50.778 70.953,50.779 C70.064,50.781 70.399,49.839 69.712,49.841 C69.43,49.841 68.555,49.844 67.97,52.752 C67.904,53.089 67.77,53.506 67.771,53.614 C67.771,53.681 67.825,53.681 67.865,53.681 L69.305,53.677 C69.386,53.677 69.413,53.677 69.413,53.758 C69.413,53.77 69.36,54.188 69.266,54.188 L67.799,54.192 C67.651,54.193 67.597,54.287 67.557,54.476 C66.241,60.535 65.907,61.572 65.034,62.315 C64.604,62.68 64.053,62.964 63.475,62.965 C63.071,62.966 62.626,62.859 62.625,62.375 C62.624,62.105 62.88,61.89 63.136,61.89 C63.633,61.888 63.944,62.371 64.294,62.37 C64.536,62.37 64.832,62.141 65.111,60.861 C66.135,56.188 66.548,54.478 66.548,54.33 C66.547,54.263 66.494,54.196 66.426,54.196 L65.255,54.199" id="Fill-43" fill="#FFFFFF" sketch:type="MSShapeGroup"></path>
                        <path d="M73.824,58.362 C73.825,58.874 74.054,58.914 74.713,58.966 C74.861,58.978 74.982,58.992 74.983,59.046 C74.983,59.153 74.97,59.328 74.835,59.329 C74.714,59.329 74.58,59.303 72.978,59.307 C72.184,59.309 72.077,59.336 71.915,59.336 C71.848,59.337 71.848,59.283 71.848,59.216 C71.847,59.095 71.914,59 71.981,59 C72.169,58.999 72.546,58.931 72.748,58.836 C73.044,58.714 73.393,58.121 73.659,57.098 C74.179,55.172 75.18,51.993 75.367,51.333 C75.394,51.239 75.581,50.673 75.58,50.593 C75.58,50.525 75.539,50.31 75.175,50.23 L74.139,50.03 C74.031,50.004 74.004,49.977 74.003,49.856 C74.003,49.749 74.07,49.708 74.151,49.708 C74.313,49.707 75.134,49.759 75.551,49.758 C75.753,49.758 76.695,49.701 76.896,49.701 C77.004,49.7 77.072,49.768 77.085,49.835 C77.604,52.579 77.894,55.472 78.004,56.427 C78.073,57.06 78.114,57.126 78.168,57.126 C78.235,57.126 78.302,57.032 78.355,56.965 C79.335,55.589 82.297,50.978 83.142,49.887 C83.236,49.765 83.303,49.685 83.41,49.684 C83.491,49.684 84.286,49.735 84.474,49.735 C84.635,49.734 85.335,49.679 85.725,49.678 C85.806,49.678 85.806,49.719 85.806,49.826 C85.807,49.961 85.78,50.041 85.672,50.055 C85.484,50.068 85.054,50.138 84.865,50.191 C84.543,50.286 84.409,50.731 84.33,51.148 C83.492,55.336 82.84,57.868 82.841,58.38 C82.842,58.797 83.111,58.85 83.354,58.876 L84.026,58.955 C84.094,58.969 84.134,58.969 84.135,59.09 C84.135,59.13 84.081,59.305 83.987,59.306 C83.826,59.306 83.745,59.279 82.749,59.281 C80.932,59.286 80.582,59.313 80.353,59.314 C80.232,59.314 80.205,59.261 80.205,59.193 C80.205,59.032 80.231,59.005 80.487,58.964 L81.106,58.869 C81.294,58.854 81.442,58.706 81.495,58.518 C82.122,56.161 82.732,52.768 83.252,50.963 C83.292,50.814 83.332,50.56 83.332,50.518 C83.332,50.478 83.318,50.451 83.264,50.451 C83.224,50.451 82.849,50.924 82.768,51.045 C80.783,53.876 78.706,57.192 77.513,59.134 C77.486,59.187 77.352,59.431 77.231,59.431 C77.191,59.431 77.124,59.403 77.068,58.919 C76.695,55.071 76.188,51.466 76.066,51.116 C76.053,51.075 76.039,51.009 75.958,51.009 C75.891,51.009 75.851,51.062 75.383,52.518 C74.075,56.585 73.823,58.16 73.824,58.362" id="Fill-44" fill="#FFFFFF" sketch:type="MSShapeGroup"></path>
                        <path d="M88.186,49.981 C88.549,49.98 88.832,50.263 88.833,50.626 C88.834,50.989 88.552,51.272 88.189,51.273 C87.826,51.274 87.542,50.992 87.541,50.629 C87.54,50.266 87.822,49.982 88.186,49.981 L88.186,49.981 Z M85.749,54.994 C85.709,54.994 85.655,54.914 85.655,54.847 C85.654,54.712 86.835,53.241 87.844,53.239 C87.938,53.239 88.261,53.278 88.262,53.628 C88.264,54.193 86.564,58.168 86.565,58.396 C86.565,58.491 86.592,58.559 86.66,58.558 C86.983,58.558 87.909,57.586 87.976,57.586 C88.044,57.586 88.124,57.586 88.125,57.72 C88.125,57.787 86.703,59.5 85.761,59.436 C85.37,59.437 85.369,59.1 85.369,58.897 C85.368,58.52 87.134,54.304 87.133,54.237 C87.133,54.196 87.133,54.035 87.025,54.035 C86.675,54.036 86.179,54.63 85.856,54.927 C85.803,54.967 85.776,54.994 85.749,54.994 L85.749,54.994 Z" id="Fill-45" fill="#FFFFFF" sketch:type="MSShapeGroup"></path>
                        <path d="M88.838,58.095 C89.525,58.093 89.419,58.981 90.106,58.979 C90.294,58.979 90.845,58.709 90.844,58.116 C90.843,57.645 90.369,56.719 90.22,56.423 C89.963,55.952 89.693,55.388 89.691,54.93 C89.689,53.893 90.67,53.285 91.639,53.283 C92.271,53.281 92.945,53.481 92.946,54.101 C92.947,54.343 92.706,54.612 92.369,54.613 C91.75,54.615 91.801,53.673 91.169,53.675 C90.779,53.676 90.47,53.932 90.471,54.336 C90.472,54.739 90.823,55.344 91.066,55.842 C91.377,56.474 91.675,57.011 91.677,57.616 C91.68,58.653 90.322,59.424 89.394,59.426 C88.855,59.428 88.356,59.145 88.355,58.594 C88.354,58.352 88.596,58.096 88.838,58.095" id="Fill-46" fill="#FFFFFF" sketch:type="MSShapeGroup"></path>
                        <path d="M92.821,58.085 C93.507,58.083 93.402,58.972 94.088,58.97 C94.277,58.969 94.828,58.698 94.826,58.106 C94.825,57.635 94.352,56.708 94.203,56.412 C93.946,55.942 93.675,55.377 93.674,54.92 C93.671,53.884 94.652,53.275 95.622,53.272 C96.254,53.271 96.928,53.472 96.928,54.091 C96.93,54.333 96.687,54.603 96.352,54.603 C95.732,54.605 95.784,53.663 95.151,53.665 C94.761,53.666 94.452,53.922 94.453,54.325 C94.454,54.729 94.805,55.334 95.049,55.831 C95.36,56.463 95.658,57.001 95.659,57.606 C95.662,58.643 94.305,59.413 93.376,59.416 C92.838,59.417 92.339,59.136 92.337,58.584 C92.337,58.342 92.579,58.085 92.821,58.085" id="Fill-47" fill="#FFFFFF" sketch:type="MSShapeGroup"></path>
                        <path d="M99.859,53.612 C98.984,53.614 97.93,56.376 97.932,57.627 C97.934,58.125 97.908,59.054 98.662,59.052 C99.363,59.05 100.58,56.409 100.576,55.036 C100.574,54.041 100.412,53.61 99.859,53.612 L99.859,53.612 Z M98.596,59.402 C97.426,59.405 97.059,58.142 97.057,57.36 C97.053,55.504 98.23,53.266 99.818,53.262 C100.896,53.259 101.449,54.065 101.453,55.304 C101.457,57.094 100.318,59.397 98.596,59.402 L98.596,59.402 Z" id="Fill-48" fill="#FFFFFF" sketch:type="MSShapeGroup"></path>
                        <path d="M105.822,59.222 C105.727,59.223 105.646,59.195 105.646,59.088 C105.646,58.846 106.393,56.65 106.393,56.502 C106.393,56.462 106.379,56.421 106.354,56.422 C106.299,56.422 105.105,58.241 104.301,58.93 C103.883,59.281 103.48,59.39 103.076,59.391 C102.754,59.392 102.512,59.177 102.51,58.585 C102.508,57.992 104.26,54.085 104.26,53.628 C104.26,53.547 104.178,53.479 104.098,53.479 C103.828,53.48 102.834,54.061 102.461,55.328 C102.447,55.382 102.406,55.382 102.34,55.382 C102.271,55.382 102.23,55.314 102.23,55.221 C102.23,54.884 102.752,53.86 103.344,53.495 C103.613,53.333 104.043,53.09 105.227,53.087 C105.309,53.087 105.469,53.126 105.471,53.314 C105.471,53.57 103.557,57.801 103.559,58.42 C103.559,58.608 103.721,58.689 103.814,58.689 C104.271,58.688 104.742,58.242 105.762,56.8 C106.393,55.95 106.646,55.397 106.699,55.25 C107.314,53.565 107.287,53.189 107.488,53.188 L108.283,53.186 C108.391,53.186 108.457,53.239 108.457,53.28 C108.459,53.509 106.773,58.17 106.775,58.466 C106.775,58.533 106.803,58.641 106.883,58.641 C107.502,58.639 108.332,57.089 108.387,57.089 C108.467,57.089 108.574,57.102 108.574,57.196 C108.576,57.466 107.504,59.218 106.359,59.221 L105.822,59.222" id="Fill-49" fill="#FFFFFF" sketch:type="MSShapeGroup"></path>
                        <path d="M109.373,59.213 C109.307,59.213 109.279,59.159 109.279,59.133 C109.277,58.877 111.096,53.825 111.096,53.744 C111.096,53.65 111.027,53.583 110.826,53.584 C110.045,53.586 109.484,55.444 109.336,55.444 C109.229,55.444 109.188,55.418 109.188,55.352 C109.186,54.274 109.91,53.236 111.176,53.232 L111.861,53.23 C112.01,53.23 112.09,53.284 112.09,53.338 C112.09,53.445 111.008,56.544 111.008,56.665 C111.008,56.719 111.049,56.76 111.076,56.76 C111.17,56.759 111.305,56.449 111.68,55.788 C112.738,53.956 113.342,53.174 114.135,53.171 C114.539,53.17 114.85,53.452 114.85,53.856 C114.852,54.232 114.529,54.543 114.152,54.544 C113.492,54.546 113.531,54.115 113.209,54.115 C113.061,54.116 112.752,54.52 112.631,54.709 C111.172,57.068 110.982,57.351 110.273,59.076 C110.234,59.17 110.193,59.211 110.113,59.211 L109.373,59.213" id="Fill-50" fill="#FFFFFF" sketch:type="MSShapeGroup"></path>
                        <path d="M117.584,49.905 C117.947,49.904 118.23,50.186 118.232,50.55 C118.232,50.913 117.951,51.196 117.588,51.197 C117.225,51.198 116.941,50.917 116.939,50.554 C116.939,50.19 117.221,49.906 117.584,49.905 L117.584,49.905 Z M115.148,54.918 C115.107,54.918 115.053,54.838 115.053,54.771 C115.053,54.636 116.232,53.166 117.242,53.163 C117.336,53.163 117.66,53.203 117.66,53.553 C117.662,54.118 115.963,58.093 115.963,58.321 C115.965,58.415 115.992,58.482 116.059,58.482 C116.381,58.481 117.309,57.511 117.375,57.51 C117.441,57.51 117.523,57.51 117.523,57.644 C117.523,57.712 116.102,59.425 115.16,59.359 C114.77,59.36 114.768,59.024 114.768,58.822 C114.766,58.445 116.533,54.228 116.531,54.161 C116.531,54.121 116.531,53.959 116.424,53.959 C116.074,53.96 115.578,54.554 115.256,54.851 C115.201,54.892 115.174,54.918 115.148,54.918 L115.148,54.918 Z" id="Fill-51" fill="#FFFFFF" sketch:type="MSShapeGroup"></path>
                        <path d="M129.65,53.912 C129.854,53.912 129.854,53.885 129.906,53.655 C130.533,51.138 130.68,50.612 130.678,50.383 C130.678,50.235 130.678,49.952 129.789,49.955 C129.467,49.956 129.453,49.835 129.451,49.768 C129.451,49.7 129.479,49.565 129.613,49.565 C129.775,49.564 130.139,49.617 131.35,49.614 C132.695,49.611 132.938,49.557 133.031,49.557 C133.152,49.556 133.18,49.556 133.18,49.637 C133.18,49.798 133.166,49.946 132.668,49.947 C132.266,49.948 132.051,50.084 131.904,50.663 C130.238,57.248 130.092,58.002 130.094,58.379 C130.094,58.715 130.377,58.836 131.225,58.833 C131.346,58.833 131.359,58.874 131.359,58.928 C131.361,59.062 131.334,59.184 131.172,59.184 C131.078,59.184 130.984,59.157 129.639,59.161 C127.916,59.165 127.674,59.192 127.564,59.193 C127.457,59.193 127.457,59.099 127.457,59.072 C127.457,58.924 127.523,58.843 127.578,58.843 C128.574,58.84 128.682,58.665 128.867,57.897 C129.6,54.854 129.721,54.504 129.721,54.464 C129.721,54.355 129.586,54.356 129.451,54.356 L125.197,54.367 C125.076,54.368 124.996,54.395 124.957,54.57 C124.25,57.681 124.131,58.26 124.131,58.394 C124.133,58.664 124.32,58.851 125.289,58.849 C125.371,58.849 125.424,58.876 125.426,59.023 C125.426,59.172 125.398,59.198 125.236,59.199 C125.115,59.199 124.859,59.173 123.326,59.177 C122.102,59.181 121.832,59.208 121.645,59.208 C121.535,59.208 121.51,59.195 121.51,59.102 C121.508,58.899 121.549,58.886 121.832,58.857 C122.611,58.789 122.693,58.788 122.879,58.007 C124.33,52.109 124.678,50.991 124.676,50.426 C124.676,50.049 124.432,49.969 123.76,49.971 C123.518,49.971 123.477,49.903 123.477,49.81 C123.477,49.769 123.516,49.581 123.611,49.58 C123.867,49.58 124.729,49.632 125.428,49.63 C126.127,49.628 126.895,49.572 127.082,49.571 C127.164,49.571 127.191,49.585 127.191,49.773 C127.191,49.922 127.15,49.962 127.004,49.962 C126.451,49.963 126.115,50.059 125.969,50.584 C125.836,51.056 125.156,53.573 125.156,53.815 C125.156,53.924 125.25,53.924 125.344,53.923 L129.65,53.912" id="Fill-52" fill="#FFFFFF" sketch:type="MSShapeGroup"></path>
                        <path d="M136.137,54.138 C136.135,53.895 136.014,53.572 135.703,53.573 C134.977,53.575 134.387,54.573 134,56 C135.682,55.794 136.137,54.622 136.137,54.138 L136.137,54.138 Z M137.051,54.148 C137.053,54.795 136.49,55.846 133.961,56.337 C133.908,56.633 133.801,57.118 133.803,57.441 C133.805,58.006 134.008,58.571 134.666,58.569 C135.406,58.567 136.037,57.543 136.131,57.542 C136.252,57.542 136.293,57.637 136.293,57.717 C136.293,57.825 135.248,59.308 134.104,59.31 C133.08,59.313 132.811,58.493 132.807,57.618 C132.801,55.075 134.451,53.226 135.932,53.223 C136.564,53.221 137.049,53.489 137.051,54.148 L137.051,54.148 Z" id="Fill-53" fill="#FFFFFF" sketch:type="MSShapeGroup"></path>
                        <path d="M141.732,53.988 C141.732,53.706 141.65,53.504 141.18,53.506 C139.82,53.509 138.457,57.214 138.461,58.209 C138.461,58.425 138.541,58.546 138.662,58.545 C139.578,58.543 141.736,55.119 141.732,53.988 L141.732,53.988 Z M143.158,52.989 C143.197,52.989 143.238,52.989 143.238,53.069 C143.238,53.365 141.354,57.758 141.354,58.216 C141.354,58.296 141.381,58.391 141.488,58.39 C141.879,58.389 142.805,56.946 142.965,56.946 C143.02,56.946 143.086,57 143.086,57.054 C143.088,57.161 141.572,59.292 140.629,59.294 C140.334,59.295 140.213,59.134 140.211,58.985 C140.211,58.636 141.053,56.655 141.053,56.601 C141.053,56.561 141.039,56.534 141,56.534 C140.879,56.534 140.611,57.073 140.463,57.263 C139.779,58.179 138.84,59.299 137.844,59.301 C137.387,59.303 137.305,58.993 137.305,58.63 C137.301,57.58 138.559,54.993 139.768,53.859 C140.467,53.211 140.951,53.156 141.408,53.155 C141.799,53.154 141.92,53.248 142.014,53.342 C142.109,53.435 142.137,53.53 142.176,53.53 C142.283,53.529 142.35,52.991 142.512,52.991 L143.158,52.989 L143.158,52.989 Z" id="Fill-54" fill="#FFFFFF" sketch:type="MSShapeGroup"></path>
                        <path d="M146.379,50.369 C146.377,50.019 146.189,50.007 145.92,50.008 C145.705,50.008 145.504,50.009 145.502,49.807 C145.502,49.645 145.664,49.604 145.92,49.577 C146.74,49.494 147.332,49.385 147.426,49.385 C147.508,49.384 147.629,49.384 147.629,49.505 C147.629,50.03 145.012,57.506 145.012,57.803 C145.012,57.964 145.094,58.03 145.24,58.03 C145.537,58.029 146.516,56.763 146.678,56.762 C146.746,56.762 146.799,56.815 146.799,56.936 C146.799,57.058 145.002,59.283 144.127,59.285 C143.832,59.286 143.67,59.098 143.668,58.829 C143.668,58.452 146.379,50.504 146.379,50.369" id="Fill-55" fill="#FFFFFF" sketch:type="MSShapeGroup"></path>
                        <path d="M147.732,54.04 C147.611,54.041 147.57,54.014 147.57,53.946 C147.57,53.879 147.717,53.475 147.893,53.475 L148.969,53.472 C149.051,53.472 149.076,53.472 149.117,53.444 C149.158,53.391 149.172,53.337 149.586,52.057 C149.598,51.989 149.68,51.963 149.746,51.963 L150.365,51.961 C150.459,51.961 150.486,51.987 150.486,52.082 C150.486,52.149 150.127,53.214 150.127,53.361 C150.127,53.442 150.193,53.469 150.262,53.469 L151.418,53.466 C151.514,53.465 151.553,53.492 151.555,53.627 C151.555,53.681 151.434,54.071 151.285,54.072 C151.057,54.072 150.842,54.06 150.639,54.046 C150.438,54.047 150.236,54.034 150.033,54.034 C149.898,54.035 149.846,54.264 149.766,54.519 C149.66,54.896 148.619,58.452 148.619,58.493 C148.619,58.654 148.701,58.722 148.809,58.722 C149.346,58.72 150.582,57.437 150.648,57.437 C150.715,57.437 150.77,57.464 150.77,57.545 C150.77,57.747 149.375,59.271 147.988,59.275 C147.705,59.275 147.545,59.101 147.543,58.778 C147.543,58.59 148.891,54.293 148.891,54.132 C148.891,54.064 148.822,54.038 148.688,54.038 L147.732,54.04" id="Fill-56" fill="#FFFFFF" sketch:type="MSShapeGroup"></path>
                        <path d="M151.674,59.104 C151.566,59.104 151.5,59.037 151.5,58.902 C151.498,58.768 154.074,50.444 154.074,50.35 C154.074,50 153.885,49.987 153.615,49.987 C153.4,49.988 153.199,49.988 153.199,49.787 C153.197,49.625 153.359,49.585 153.615,49.557 C154.436,49.475 155.027,49.365 155.121,49.364 C155.203,49.364 155.324,49.364 155.324,49.485 C155.324,49.646 153.67,55.196 153.67,55.276 C153.67,55.304 153.684,55.33 153.711,55.33 C153.764,55.33 153.805,55.223 153.832,55.182 C154.957,53.618 155.967,53.171 156.49,53.17 C157.043,53.168 157.381,53.504 157.381,54.069 C157.387,55.859 155.713,59.255 154.205,59.259 C153.855,59.26 153.639,59.099 153.639,58.722 C153.637,58.399 153.893,58.062 154.203,58.061 C154.66,58.06 154.525,58.559 154.877,58.558 C155.563,58.556 156.322,55.391 156.32,54.771 C156.318,54.287 156.129,53.978 155.727,53.979 C155.336,53.98 154.543,54.588 153.631,55.963 C153.041,56.852 153.016,57.432 152.494,58.913 C152.469,58.994 152.441,59.102 152.334,59.102 L151.674,59.104" id="Fill-57" fill="#FFFFFF" sketch:type="MSShapeGroup"></path>
                        <path d="M167.799,49.723 C164.555,49.73 163.68,55.277 163.684,56.166 C163.688,57.646 164.402,58.734 166.152,58.73 C166.529,58.729 168.021,58.496 168.771,56.813 C168.865,56.597 168.906,56.557 169.041,56.556 C169.148,56.556 169.256,56.569 169.256,56.677 C169.256,56.959 168.924,58.145 168.764,58.629 C168.723,58.751 168.67,58.898 168.387,58.967 C167.795,59.103 167.473,59.171 166.221,59.174 C164.256,59.179 162.422,58.201 162.416,55.227 C162.41,53.505 163.787,49.41 167.676,49.332 C169.063,49.302 170.127,50.227 170.424,50.227 C170.504,50.226 170.691,50.024 170.826,50.024 C170.947,50.024 170.988,50.064 170.988,50.185 C170.988,50.307 170.842,50.589 170.455,52.312 C170.43,52.435 170.336,52.528 170.229,52.529 C169.986,52.529 170.025,51.978 169.889,51.225 C169.834,50.901 169.643,49.718 167.799,49.723" id="Fill-58" fill="#FFFFFF" sketch:type="MSShapeGroup"></path>
                        <path d="M174.871,53.903 C174.871,53.62 174.789,53.419 174.318,53.42 C172.959,53.424 171.596,57.128 171.6,58.124 C171.6,58.339 171.68,58.46 171.801,58.46 C172.717,58.458 174.875,55.033 174.871,53.903 L174.871,53.903 Z M176.295,52.904 C176.336,52.903 176.377,52.903 176.377,52.984 C176.377,53.28 174.492,57.673 174.492,58.13 C174.492,58.211 174.52,58.305 174.627,58.305 C175.018,58.304 175.943,56.861 176.104,56.861 C176.158,56.86 176.225,56.914 176.225,56.968 C176.225,57.076 174.711,59.206 173.768,59.209 C173.473,59.21 173.352,59.048 173.35,58.9 C173.35,58.55 174.191,56.569 174.191,56.516 C174.191,56.476 174.178,56.448 174.139,56.448 C174.018,56.449 173.75,56.988 173.602,57.177 C172.918,58.094 171.979,59.213 170.982,59.216 C170.525,59.217 170.443,58.908 170.443,58.545 C170.439,57.495 171.697,54.907 172.906,53.773 C173.605,53.126 174.09,53.07 174.547,53.069 C174.938,53.068 175.059,53.162 175.152,53.257 C175.246,53.351 175.273,53.444 175.314,53.444 C175.422,53.444 175.488,52.906 175.65,52.905 L176.295,52.904 L176.295,52.904 Z" id="Fill-59" fill="#FFFFFF" sketch:type="MSShapeGroup"></path>
                        <path d="M177.131,59.038 C177.064,59.039 177.037,58.985 177.037,58.958 C177.035,58.702 178.854,53.65 178.854,53.57 C178.854,53.476 178.785,53.408 178.584,53.409 C177.803,53.411 177.242,55.269 177.094,55.269 C176.986,55.27 176.945,55.243 176.945,55.177 C176.943,54.1 177.668,53.062 178.934,53.059 L179.619,53.057 C179.768,53.056 179.848,53.109 179.848,53.164 C179.848,53.271 178.766,56.37 178.766,56.491 C178.766,56.545 178.807,56.585 178.834,56.585 C178.928,56.585 179.063,56.274 179.438,55.614 C180.496,53.781 181.1,52.999 181.893,52.997 C182.297,52.996 182.607,53.277 182.607,53.682 C182.609,54.058 182.287,54.368 181.91,54.369 C181.25,54.371 181.289,53.94 180.967,53.941 C180.818,53.941 180.51,54.346 180.389,54.535 C178.93,56.894 178.74,57.177 178.031,58.901 C177.992,58.996 177.951,59.036 177.871,59.036 L177.131,59.038" id="Fill-60" fill="#FFFFFF" sketch:type="MSShapeGroup"></path>
                        <path d="M185.959,54.01 C185.957,53.768 185.836,53.444 185.527,53.445 C184.801,53.447 184.211,54.444 183.824,55.872 C185.506,55.666 185.959,54.494 185.959,54.01 L185.959,54.01 Z M186.875,54.021 C186.875,54.666 186.313,55.718 183.783,56.208 C183.73,56.505 183.625,56.989 183.625,57.312 C183.627,57.878 183.83,58.442 184.49,58.44 C185.23,58.439 185.859,57.414 185.955,57.414 C186.076,57.414 186.115,57.508 186.117,57.589 C186.117,57.696 185.07,59.18 183.926,59.183 C182.904,59.185 182.633,58.364 182.631,57.49 C182.623,54.946 184.273,53.099 185.754,53.095 C186.387,53.093 186.873,53.361 186.875,54.021 L186.875,54.021 Z" id="Fill-61" fill="#FFFFFF" sketch:type="MSShapeGroup"></path>
                    </g>
                </g>
            </g>
        </g>
    </g>
</svg>