<?xml version="1.0" encoding="UTF-8" standalone="no"?>
<svg width="798px" height="168px" viewBox="0 0 798 168" version="1.1" xmlns="http://www.w3.org/2000/svg" xmlns:xlink="http://www.w3.org/1999/xlink" xmlns:sketch="http://www.bohemiancoding.com/sketch/ns">
    <!-- Generator: Sketch 3.4.2 (15857) - http://www.bohemiancoding.com/sketch -->
    <title>project-salubrity-logo</title>
    <desc>Created with Sketch.</desc>
    <defs></defs>
    <g id="Homepage" stroke="none" stroke-width="1" fill="none" fill-rule="evenodd" sketch:type="MSPage">
        <g id="Desktop-HD" sketch:type="MSArtboardGroup" transform="translate(-321.000000, -1454.000000)" fill="#EF5F62">
            <g id="project-salubrity" sketch:type="MSLayerGroup" transform="translate(0.000000, 1024.000000)">
                <g id="project-salubrity-logo" transform="translate(320.000000, 427.000000)" sketch:type="MSShapeGroup">
                    <path d="M102.570245,3.9571177 C98.4642242,3.37701797 94.2673996,3.07692308 90,3.07692308 C41.1440414,3.07692308 1.53846154,42.4108277 1.53846154,90.9316579 C1.53846154,125.895077 22.1034145,156.088242 51.8756274,170.231367 C54.8889615,171.662835 61.1868132,170.231373 61.1868132,166.004666 L61.1868132,143.392273 C61.1868132,136.461395 66.8449931,130.842809 73.8246965,130.842809 L77.3621167,130.842809 C84.188888,130.842809 90,136.462354 90,143.394604 L90,158.976287 C90,165.908452 93.5564102,170.582905 101.275028,170.582905 L106.49978,170.582905 C106.49978,170.582905 115.97872,170.582905 116.131519,158.976287 C115.97872,155.083264 115.644181,148.589889 116.131521,134.188287 C116.509874,123.007409 117.897157,111.165127 121.631911,104.373628 C131.33038,86.7373564 151.118737,89.8240251 158.113411,107.982928 C162.33891,118.952764 159.934165,140.626637 155.636289,145.074099 C159.934165,144.67924 153.939748,151.62288 154.81639,150.721235 C169.488704,135.039985 178.461538,114.026493 178.461538,90.9316579 C178.461538,47.0860554 146.120645,10.7422591 103.837752,4.14551704 C50.8962342,63.6137481 101.193939,76.6605996 101.193939,76.6605996 C54.478455,71.8803756 80.4367893,21.0412512 102.570245,3.9571177 L102.570245,3.9571177 Z M141.181319,64.5752375 C144.18247,64.5752375 146.615385,62.1590119 146.615385,59.1784466 C146.615385,56.1978813 144.18247,53.7816558 141.181319,53.7816558 C138.180167,53.7816558 135.747253,56.1978813 135.747253,59.1784466 C135.747253,62.1590119 138.180167,64.5752375 141.181319,64.5752375 Z" id="elephant"></path>
                    <path d="M709.055406,45.855573 L732.234774,45.855573 L755.588423,106.723011 L755.936984,106.723011 L776.676419,45.855573 L798.461538,45.855573 L758.899761,146.875709 C757.389318,150.712644 755.762712,154.113513 754.019894,157.078417 C752.277076,160.043322 750.185725,162.543106 747.745779,164.577844 C745.305834,166.612582 742.430227,168.153147 739.118872,169.199583 C735.807517,170.24602 731.828142,170.769231 727.180626,170.769231 C725.437808,170.769231 723.665969,170.682029 721.865057,170.507623 C720.064145,170.333217 718.234213,170.013477 716.375207,169.548394 L718.118016,152.068379 C719.512271,152.533462 720.877458,152.853202 722.213619,153.027608 C723.54978,153.202015 724.798781,153.289216 725.96066,153.289216 C728.168229,153.289216 730.027208,153.027611 731.53765,152.504393 C733.048093,151.981174 734.32614,151.167291 735.371831,150.062719 C736.417522,148.958147 737.347011,147.591986 738.160327,145.964195 C738.973642,144.336405 739.845038,142.417966 740.774541,140.208821 L744.957284,129.5701 L709.055406,45.855573 Z M646.577327,62.3088999 L646.577327,45.855573 L661.216927,45.855573 L661.216927,22.8209153 L681.782081,22.8209153 L681.782081,45.855573 L702.478767,45.855573 L702.478767,62.3088999 L681.782081,62.3088999 L681.782081,104.672926 C681.782081,108.39359 682.450151,111.474719 683.786312,113.916405 C685.122472,116.358091 688.114265,117.578916 692.761781,117.578916 C694.156036,117.578916 695.666455,117.433579 697.293086,117.142902 C698.919716,116.852226 700.372043,116.416217 701.65011,115.834863 L702.347234,132.228958 C700.488228,132.926582 698.280691,133.47886 695.724557,133.885808 C693.168424,134.292756 690.728515,134.496226 688.404757,134.703538 C682.827738,134.496226 678.296479,133.71141 674.810842,132.141755 C671.325206,130.5721 668.565785,128.421123 666.532497,125.68876 C664.499209,122.956398 663.104975,119.817134 662.349754,116.270876 C661.594532,112.724618 661.216927,108.916808 661.216927,104.847331 L661.216927,62.3088999 L646.577327,62.3088999 Z M620.270767,45.855573 L640.000687,45.855573 L640.000687,134.703538 L620.270767,134.703538 L620.270767,45.855573 Z M616.857491,19.53025 C616.857491,15.9958139 618.081702,12.9184632 620.53016,10.2981054 C622.978618,7.67774768 626.08185,6.36758846 629.839949,6.36758846 C633.598048,6.36758846 636.75822,7.61681004 639.32056,10.1152907 C641.8829,12.6137713 643.164051,15.7520597 643.164051,19.53025 C643.164051,23.3084402 641.8829,26.4467286 639.32056,28.9452092 C636.75822,31.4436899 633.598048,32.6929115 629.839949,32.6929115 C626.08185,32.6929115 622.978618,31.3827523 620.53016,28.7623945 C618.081702,26.1420368 616.857491,23.064686 616.857491,19.53025 Z M564.369327,45.855573 L584.411638,45.855573 L584.411638,61.6507668 L584.760199,61.6507668 C587.083957,56.767395 590.337169,52.8142485 594.519933,49.7912088 C598.702697,46.7681691 603.582515,45.914805 609.159534,45.855573 C609.972849,45.914805 610.844245,45.9438722 611.773748,46.0020076 C612.703251,46.060143 613.516554,46.2054793 613.694127,46.4380208 L613.694127,64.9644669 C612.819427,64.6156546 611.628519,64.3831166 610.640922,64.2668458 C609.653325,64.150575 608.694789,64.0924405 607.765286,64.0924405 C603.001583,64.0924405 599.16744,64.9644581 596.262743,66.7085195 C593.358046,68.4525809 591.092416,70.5454231 589.465785,72.987109 C587.839155,75.428795 586.735387,77.9285788 586.154447,80.4865354 C585.573508,83.0444921 585.283042,85.0791999 585.283042,86.5907197 L585.283042,134.703538 L564.369327,134.703538 L564.369327,45.855573 Z M488.44923,3.07692308 L488.44923,58.7105359 C489.865201,57.3429798 491.505808,55.9184636 493.108633,54.4369445 C494.711459,52.9554254 497.601156,51.5878898 499.833662,50.3342968 C502.066169,49.0807037 504.670722,48.0265617 507.647398,47.1718391 C510.624074,46.3171166 514.001405,45.8897617 517.779494,45.855573 C523.618358,45.8897617 528.999192,47.0008844 533.922156,49.223163 C538.84512,51.4454416 543.081095,54.4939063 546.630208,58.3686486 C550.179322,62.2433908 552.926982,66.8018427 554.87327,72.0441411 C556.819558,77.2864394 557.792687,84.9019229 557.792687,90.9419623 C557.792687,96.9820017 556.848179,102.651576 554.959135,107.950856 C553.070091,113.250136 550.379674,117.865568 546.887804,121.797292 C543.395934,125.729016 539.159959,128.862952 534.179751,131.199193 C529.199543,133.535435 523.561117,134.703538 517.264303,134.703538 C511.425438,134.703538 505.95874,133.449964 500.864045,130.942778 C495.76935,128.435592 491.790968,124.78883 488.928779,120.002384 L488.585318,120.002384 L488.585318,134.703538 L469.008048,134.703538 L469.008048,3.07692308 L488.44923,3.07692308 Z M537.849027,90.9419623 C537.849027,87.7509981 537.355236,84.5885721 536.367638,81.4545894 C535.380041,78.3206067 533.898668,75.5000646 531.923474,72.9928784 C529.94828,70.4856922 527.450278,68.4628792 524.429393,66.9243786 C521.408508,65.385878 517.86483,64.6166393 513.798254,64.6166393 C509.964054,64.6166393 506.536563,65.4143683 503.515678,67.0098504 C500.494793,68.6053325 497.909651,70.6566359 495.760175,73.1638221 C493.610699,75.6710082 491.984093,78.5200407 490.880308,81.7110049 C489.776523,84.9019691 489.224639,88.0928854 489.224639,91.2838496 C489.224639,94.4748138 489.776523,97.6372398 490.880308,100.771223 C491.984093,103.905205 493.610699,106.725747 495.760175,109.232933 C497.909651,111.74012 500.494793,113.762933 503.515678,115.301433 C506.536563,116.839934 509.964054,117.609173 513.798254,117.609173 C517.86483,117.609173 521.408508,116.811444 524.429393,115.215961 C527.450278,113.620479 529.94828,111.569176 531.923474,109.06199 C533.898668,106.554804 535.380041,103.705771 536.367638,100.514807 C537.355236,97.3238428 537.849027,94.1329265 537.849027,90.9419623 Z M462.431408,134.703538 L443.964203,134.703538 L443.964203,118.336808 L443.615641,118.336808 C441.756635,122.65333 438.532469,126.460205 433.943048,129.757548 C429.353626,133.054891 423.921924,134.703538 417.647778,134.703538 C412.186947,134.703538 407.510455,133.71435 403.618161,131.735944 C399.725867,129.757538 396.530748,127.149679 394.032708,123.912287 C391.534668,120.674896 389.704737,116.957947 388.542858,112.761328 C387.380979,108.56471 386.800048,104.248252 386.800048,99.8118272 L386.800048,45.855573 L407.713763,45.855573 L407.713763,93.696785 C407.713763,96.2147562 407.888043,98.8525911 408.236606,101.610369 C408.58517,104.368147 409.34038,106.856105 410.502259,109.074317 C411.664138,111.29253 413.261697,113.121029 415.294985,114.55987 C417.328273,115.998711 420.029601,116.71812 423.39905,116.71812 C426.65231,116.71812 429.527918,116.028686 432.025957,114.649797 C434.523997,113.270908 436.557254,111.50236 438.125791,109.344099 C439.694327,107.185838 440.885235,104.69788 441.69855,101.88015 C442.511866,99.0624207 442.918517,96.214758 442.918517,93.3370767 L442.918517,45.855573 L462.431408,45.855573 L462.431408,134.703538 Z M360.493488,3.07692308 L380.223408,3.07692308 L380.223408,134.703538 L360.493488,134.703538 L360.493488,3.07692308 Z M337.484136,121.556485 C335.617783,125.302401 331.157844,128.70424 327.010392,131.103967 C322.862941,133.503693 318.145286,134.703538 312.857285,134.703538 C309.850383,134.703538 306.71392,134.26457 303.447802,133.386622 C300.181684,132.508673 297.174827,131.045447 294.427141,128.9969 C291.679454,126.948353 289.39839,124.256017 287.58388,120.919812 C285.76937,117.583607 284.862129,113.45731 284.862129,108.540797 C284.862129,102.219567 286.443321,97.1860697 289.605753,93.4401552 C292.768184,89.6942407 296.83781,86.8263179 301.814751,84.8363008 C306.791693,82.8462838 312.312905,81.5293804 318.378552,80.8855514 C324.4442,80.2417223 331.695479,79.9198126 337.475249,79.9198126 L337.475249,77.8127463 C337.501911,72.545054 334.501706,68.6528731 331.131902,66.1360868 C327.762097,63.6193005 323.744314,62.3609262 319.078431,62.3609262 C315.138353,62.3609262 311.35386,63.2973908 307.72484,65.1703481 C304.09582,67.0433053 301.088963,69.3259377 298.704178,72.0183137 L289.061402,59.2003267 C293.31254,54.7520532 298.211643,51.4158982 303.75886,49.1917614 C309.306076,46.9676247 314.930972,45.855573 320.633718,45.855573 C327.26964,45.855573 332.739009,46.9090957 337.04199,49.0161726 C341.344971,51.1232495 344.740646,53.8741142 347.229117,57.2688492 C349.717587,60.6635842 351.454307,64.4679715 352.439326,68.6821253 C353.424346,72.8962791 353.916848,77.1103697 353.916848,81.3245235 L353.916848,134.703538 L337.484136,134.703538 L337.484136,121.556485 Z M337.501911,94.4715772 L331.987309,94.1425106 C328.980407,94.1425106 325.818023,94.2888332 322.500062,94.5814828 C319.182101,94.8741324 316.123401,95.5179518 313.323871,96.5129603 C310.524342,97.5079688 308.191435,98.9126657 306.325082,100.727093 C304.458729,102.54152 303.525567,105.029004 303.525567,108.18962 C303.525567,110.179637 303.914384,111.847714 304.692031,113.193902 C305.469679,114.54009 306.480605,115.622878 307.72484,116.442296 C308.969075,117.261715 310.368819,117.847006 311.924114,118.198185 C313.479408,118.549364 315.034679,118.724952 316.589973,118.724952 C323.018523,118.724952 327.891705,116.793493 331.209666,112.930519 C334.527627,109.067545 337.501911,104.128998 337.501911,97.4565879 L337.501911,94.4715772 Z M264.752152,70.6910278 C262.90143,68.2424496 260.356725,66.1145505 257.117962,64.3072666 C253.879198,62.4999826 250.351312,61.5963542 246.534198,61.5963542 C243.179765,61.5963542 240.114552,62.2959375 237.338469,63.6951251 C234.562386,65.0943126 233.174365,67.4262569 233.174365,70.6910278 C233.174365,73.9557988 234.706972,76.2585938 237.77223,77.5994818 C240.837488,78.9403699 245.319638,80.3103872 251.218815,81.7095747 C254.341908,82.4091685 257.493872,83.3419462 260.6748,84.5079358 C263.855729,85.6739255 266.747439,87.2188385 269.350016,89.1427214 C271.952594,91.0666043 274.063542,93.4568472 275.682924,96.3135218 C277.302306,99.1701963 278.111985,102.638963 278.111985,106.719927 C278.111985,111.850281 277.15772,116.193528 275.249163,119.749796 C273.340606,123.306064 270.795902,126.191845 267.614973,128.407226 C264.434045,130.622606 260.732656,132.225818 256.510697,133.216909 C252.288737,134.208 247.922255,134.703538 243.41112,134.703538 C243.312708,134.703538 243.214336,134.703262 243.116004,134.702711 C236.742084,134.666948 230.536526,133.472102 224.499149,131.118138 C218.368633,128.727859 213.279224,125.317391 209.230769,120.88663 L222.937611,107.94421 C225.251013,110.975783 228.258391,113.482623 231.959835,115.464806 C235.661279,117.446988 239.767507,118.438064 244.278642,118.438064 C245.782354,118.438064 247.31496,118.263168 248.876506,117.913372 C250.438053,117.563575 251.883908,117.009738 253.214115,116.251845 C254.544321,115.493951 255.614254,114.473726 256.423944,113.191137 C257.233635,111.908549 257.638475,110.334486 257.638475,108.468903 C257.638475,104.970934 256.048034,102.464094 252.867106,100.948307 C249.686177,99.4325208 244.914856,97.9167571 238.552999,96.4009705 C235.429906,95.7013768 232.393611,94.7977484 229.444023,93.6900582 C226.494434,92.5823681 223.862979,91.1249029 221.549576,89.317619 C219.236173,87.5103351 217.385479,85.2658387 215.997438,82.5840626 C214.609396,79.9022864 213.915386,76.5792658 213.915386,72.6149011 C213.915386,67.9509426 214.86965,63.9283387 216.778207,60.5469688 C218.686764,57.1655989 221.202552,54.3964151 224.325645,52.2393343 C227.448739,50.0822535 230.976624,48.4790418 234.909409,47.4296511 C238.842193,46.3802605 242.890587,45.855573 247.054711,45.855573 C253.069558,45.855573 258.939728,46.9049479 264.6654,49.0037292 C270.391071,51.1025106 274.931055,54.3089339 278.285489,58.6230956 L264.752152,70.6910278 Z" id="salubrity"></path>
                </g>
            </g>
        </g>
    </g>
</svg>